<svg xmlns="http://www.w3.org/2000/svg" viewBox="0 0 500 500"><g id="freepik--tiles-2--inject-188"><rect x="374.04" y="290.59" width="41.75" height="46.66" style="fill:#6F42C1;stroke:#263238;stroke-linecap:round;stroke-linejoin:round"></rect><rect x="332.29" y="290.59" width="41.75" height="46.66" style="fill:#6F42C1;stroke:#263238;stroke-linecap:round;stroke-linejoin:round"></rect><rect x="290.54" y="290.59" width="41.75" height="46.66" style="fill:#6F42C1;stroke:#263238;stroke-linecap:round;stroke-linejoin:round"></rect><rect x="248.79" y="290.59" width="41.75" height="46.66" style="fill:#6F42C1;stroke:#263238;stroke-linecap:round;stroke-linejoin:round"></rect><rect x="207.04" y="290.59" width="41.75" height="46.66" style="fill:#6F42C1;stroke:#263238;stroke-linecap:round;stroke-linejoin:round"></rect><rect x="165.29" y="290.59" width="41.75" height="46.66" style="fill:#6F42C1;stroke:#263238;stroke-linecap:round;stroke-linejoin:round"></rect><rect x="374.04" y="243.9" width="41.75" height="46.66" style="fill:#6F42C1;stroke:#263238;stroke-linecap:round;stroke-linejoin:round"></rect><rect x="332.29" y="243.9" width="41.75" height="46.66" style="fill:#6F42C1;stroke:#263238;stroke-linecap:round;stroke-linejoin:round"></rect><rect x="290.54" y="243.9" width="41.75" height="46.66" style="fill:#6F42C1;stroke:#263238;stroke-linecap:round;stroke-linejoin:round"></rect><rect x="248.79" y="243.9" width="41.75" height="46.66" style="fill:#6F42C1;stroke:#263238;stroke-linecap:round;stroke-linejoin:round"></rect><rect x="207.04" y="243.9" width="41.75" height="46.66" style="fill:#6F42C1;stroke:#263238;stroke-linecap:round;stroke-linejoin:round"></rect><rect x="165.29" y="243.9" width="41.75" height="46.66" style="fill:#6F42C1;stroke:#263238;stroke-linecap:round;stroke-linejoin:round"></rect><rect x="374.04" y="197.22" width="41.75" height="46.66" style="fill:#6F42C1;stroke:#263238;stroke-linecap:round;stroke-linejoin:round"></rect><rect x="332.29" y="197.22" width="41.75" height="46.66" style="fill:#6F42C1;stroke:#263238;stroke-linecap:round;stroke-linejoin:round"></rect><rect x="290.54" y="197.22" width="41.75" height="46.66" style="fill:#6F42C1;stroke:#263238;stroke-linecap:round;stroke-linejoin:round"></rect><rect x="248.79" y="197.22" width="41.75" height="46.66" style="fill:#6F42C1;stroke:#263238;stroke-linecap:round;stroke-linejoin:round"></rect><rect x="207.04" y="197.22" width="41.75" height="46.66" style="fill:#6F42C1;stroke:#263238;stroke-linecap:round;stroke-linejoin:round"></rect><rect x="165.29" y="197.22" width="41.75" height="46.66" style="fill:#6F42C1;stroke:#263238;stroke-linecap:round;stroke-linejoin:round"></rect><rect x="374.04" y="150.53" width="41.75" height="46.66" style="fill:#6F42C1;stroke:#263238;stroke-linecap:round;stroke-linejoin:round"></rect><rect x="332.29" y="150.53" width="41.75" height="46.66" style="fill:#6F42C1;stroke:#263238;stroke-linecap:round;stroke-linejoin:round"></rect><rect x="290.54" y="150.53" width="41.75" height="46.66" style="fill:#6F42C1;stroke:#263238;stroke-linecap:round;stroke-linejoin:round"></rect><rect x="374.04" y="103.84" width="41.75" height="46.66" style="fill:#6F42C1;stroke:#263238;stroke-linecap:round;stroke-linejoin:round"></rect><rect x="332.29" y="103.84" width="41.75" height="46.66" style="fill:#6F42C1;stroke:#263238;stroke-linecap:round;stroke-linejoin:round"></rect><rect x="290.54" y="103.84" width="41.75" height="46.66" style="fill:#6F42C1;stroke:#263238;stroke-linecap:round;stroke-linejoin:round"></rect><path d="M352.38,153.22a1,1,0,0,1-1-1v-4.38a1,1,0,0,1,2,0v4.38A1,1,0,0,1,352.38,153.22Z" style="fill:#fff"></path><path d="M395.57,153.22a1,1,0,0,1-1-1v-4.38a1,1,0,1,1,2,0v4.38A1,1,0,0,1,395.57,153.22Z" style="fill:#fff"></path><path d="M310.79,153.22a1,1,0,0,1-1-1v-4.38a1,1,0,1,1,2,0v4.38A1,1,0,0,1,310.79,153.22Z" style="fill:#fff"></path><path d="M352.38,200.21a1,1,0,0,1-1-1v-4.38a1,1,0,0,1,2,0v4.38A1,1,0,0,1,352.38,200.21Z" style="fill:#fff"></path><path d="M395.57,200.21a1,1,0,0,1-1-1v-4.38a1,1,0,1,1,2,0v4.38A1,1,0,0,1,395.57,200.21Z" style="fill:#fff"></path><path d="M310.79,200.21a1,1,0,0,1-1-1v-4.38a1,1,0,1,1,2,0v4.38A1,1,0,0,1,310.79,200.21Z" style="fill:#fff"></path><path d="M352.38,246.8a1,1,0,0,1-1-1v-4.38a1,1,0,1,1,2,0v4.38A1,1,0,0,1,352.38,246.8Z" style="fill:#fff"></path><path d="M395.57,246.8a1,1,0,0,1-1-1v-4.38a1,1,0,0,1,2,0v4.38A1,1,0,0,1,395.57,246.8Z" style="fill:#fff"></path><path d="M310.79,246.8a1,1,0,0,1-1-1v-4.38a1,1,0,0,1,2,0v4.38A1,1,0,0,1,310.79,246.8Z" style="fill:#fff"></path><path d="M269.14,246.8a1,1,0,0,1-1-1v-4.38a1,1,0,1,1,2,0v4.38A1,1,0,0,1,269.14,246.8Z" style="fill:#fff"></path><path d="M226.75,246.8a1,1,0,0,1-1-1v-4.38a1,1,0,1,1,2,0v4.38A1,1,0,0,1,226.75,246.8Z" style="fill:#fff"></path><path d="M184.56,246.8a1,1,0,0,1-1-1v-4.38a1,1,0,0,1,2,0v4.38A1,1,0,0,1,184.56,246.8Z" style="fill:#fff"></path><path d="M352.38,293.47a1,1,0,0,1-1-1v-4.38a1,1,0,0,1,2,0v4.38A1,1,0,0,1,352.38,293.47Z" style="fill:#fff"></path><path d="M395.57,293.47a1,1,0,0,1-1-1v-4.38a1,1,0,0,1,2,0v4.38A1,1,0,0,1,395.57,293.47Z" style="fill:#fff"></path><path d="M310.79,293.47a1,1,0,0,1-1-1v-4.38a1,1,0,0,1,2,0v4.38A1,1,0,0,1,310.79,293.47Z" style="fill:#fff"></path><path d="M269.14,293.47a1,1,0,0,1-1-1v-4.38a1,1,0,0,1,2,0v4.38A1,1,0,0,1,269.14,293.47Z" style="fill:#fff"></path><path d="M226.75,293.47a1,1,0,0,1-1-1v-4.38a1,1,0,1,1,2,0v4.38A1,1,0,0,1,226.75,293.47Z" style="fill:#fff"></path><path d="M184.56,293.47a1,1,0,0,1-1-1v-4.38a1,1,0,0,1,2,0v4.38A1,1,0,0,1,184.56,293.47Z" style="fill:#fff"></path><path d="M328.79,174.87a1,1,0,0,1,1-1h4.38a1,1,0,0,1,0,2h-4.38A1,1,0,0,1,328.79,174.87Z" style="fill:#fff"></path><path d="M328.79,224.09a1,1,0,0,1,1-1h4.38a1,1,0,0,1,0,2h-4.38A1,1,0,0,1,328.79,224.09Z" style="fill:#fff"></path><path d="M328.79,131.25a1,1,0,0,1,1-1h4.38a1,1,0,0,1,0,2h-4.38A1,1,0,0,1,328.79,131.25Z" style="fill:#fff"></path><path d="M328.79,315.78a1,1,0,0,1,1-1h4.38a1,1,0,1,1,0,2h-4.38A1,1,0,0,1,328.79,315.78Z" style="fill:#fff"></path><path d="M328.79,266.88a1,1,0,0,1,1-1h4.38a1,1,0,0,1,0,2h-4.38A1,1,0,0,1,328.79,266.88Z" style="fill:#fff"></path><path d="M370.52,174.87a1,1,0,0,1,1-1h4.39a1,1,0,0,1,0,2h-4.39A1,1,0,0,1,370.52,174.87Z" style="fill:#fff"></path><path d="M370.52,224.09a1,1,0,0,1,1-1h4.39a1,1,0,0,1,0,2h-4.39A1,1,0,0,1,370.52,224.09Z" style="fill:#fff"></path><path d="M370.52,131.25a1,1,0,0,1,1-1h4.39a1,1,0,0,1,0,2h-4.39A1,1,0,0,1,370.52,131.25Z" style="fill:#fff"></path><path d="M370.52,315.78a1,1,0,0,1,1-1h4.39a1,1,0,1,1,0,2h-4.39A1,1,0,0,1,370.52,315.78Z" style="fill:#fff"></path><path d="M370.52,266.88a1,1,0,0,1,1-1h4.39a1,1,0,0,1,0,2h-4.39A1,1,0,0,1,370.52,266.88Z" style="fill:#fff"></path><path d="M287.54,224.09a1,1,0,0,1,1-1h4.38a1,1,0,0,1,0,2h-4.38A1,1,0,0,1,287.54,224.09Z" style="fill:#fff"></path><path d="M287.54,315.78a1,1,0,0,1,1-1h4.38a1,1,0,1,1,0,2h-4.38A1,1,0,0,1,287.54,315.78Z" style="fill:#fff"></path><path d="M287.54,266.88a1,1,0,0,1,1-1h4.38a1,1,0,0,1,0,2h-4.38A1,1,0,0,1,287.54,266.88Z" style="fill:#fff"></path><path d="M244.91,224.09a1,1,0,0,1,1-1h4.38a1,1,0,0,1,0,2h-4.38A1,1,0,0,1,244.91,224.09Z" style="fill:#fff"></path><path d="M244.91,315.78a1,1,0,0,1,1-1h4.38a1,1,0,0,1,0,2h-4.38A1,1,0,0,1,244.91,315.78Z" style="fill:#fff"></path><path d="M244.91,266.88a1,1,0,0,1,1-1h4.38a1,1,0,0,1,0,2h-4.38A1,1,0,0,1,244.91,266.88Z" style="fill:#fff"></path><path d="M203.91,224.09a1,1,0,0,1,1-1h4.38a1,1,0,0,1,0,2h-4.38A1,1,0,0,1,203.91,224.09Z" style="fill:#fff"></path><path d="M203.91,315.78a1,1,0,0,1,1-1h4.38a1,1,0,0,1,0,2h-4.38A1,1,0,0,1,203.91,315.78Z" style="fill:#fff"></path><path d="M203.91,266.88a1,1,0,0,1,1-1h4.38a1,1,0,0,1,0,2h-4.38A1,1,0,0,1,203.91,266.88Z" style="fill:#fff"></path></g><g id="freepik--tiles-1--inject-188"><polygon points="415.67 337.33 164.85 337.33 131.32 407.24 447.01 407.24 415.67 337.33" style="fill:#b2b2b2;stroke:#263238;stroke-linecap:round;stroke-linejoin:round"></polygon><polygon points="341.56 407.19 289.01 407.19 289.02 370.7 336.08 370.7 341.56 407.19" style="fill:#6F42C1;stroke:#263238;stroke-linecap:round;stroke-linejoin:round"></polygon><polygon points="394.28 407.19 341.73 407.19 336.23 370.7 383.29 370.7 394.28 407.19" style="fill:#6F42C1;stroke:#263238;stroke-linecap:round;stroke-linejoin:round"></polygon><polygon points="447.01 407.19 394.45 407.19 383.44 370.7 430.49 370.7 447.01 407.19" style="fill:#6F42C1;stroke:#263238;stroke-linecap:round;stroke-linejoin:round"></polygon><polygon points="348.5 453.4 288.98 453.4 289.01 407.24 341.57 407.24 348.5 453.4" style="fill:#6F42C1;stroke:#263238;stroke-linecap:round;stroke-linejoin:round"></polygon><polygon points="288.98 453.4 229.47 453.4 236.44 407.24 289 407.24 288.98 453.4" style="fill:#6F42C1;stroke:#263238;stroke-linecap:round;stroke-linejoin:round"></polygon><polygon points="229.46 453.4 169.95 453.4 183.88 407.24 236.44 407.24 229.46 453.4" style="fill:#6F42C1;stroke:#263238;stroke-linecap:round;stroke-linejoin:round"></polygon><polygon points="169.95 453.4 110.43 453.4 131.32 407.24 183.88 407.24 169.95 453.4" style="fill:#6F42C1;stroke:#263238;stroke-linecap:round;stroke-linejoin:round"></polygon><polygon points="408.21 453.4 348.69 453.4 341.74 407.24 394.3 407.24 408.21 453.4" style="fill:#6F42C1;stroke:#263238;stroke-linecap:round;stroke-linejoin:round"></polygon><polygon points="467.92 453.4 408.4 453.4 394.47 407.24 447.03 407.24 467.92 453.4" style="fill:#6F42C1;stroke:#263238;stroke-linecap:round;stroke-linejoin:round"></polygon><line x1="161.42" y1="484.25" x2="160.33" y2="488.12" style="fill:none;stroke:#263238;stroke-linecap:round;stroke-linejoin:round"></line><line x1="169.13" y1="456.9" x2="162.79" y2="479.39" style="fill:none;stroke:#263238;stroke-linecap:round;stroke-linejoin:round"></line><line x1="228.76" y1="456.5" x2="226.36" y2="474.11" style="fill:none;stroke:#263238;stroke-linecap:round;stroke-linejoin:round"></line><line x1="288.39" y1="456.1" x2="288.39" y2="467.31" style="fill:none;stroke:#263238;stroke-linecap:round;stroke-linejoin:round"></line><line x1="348.82" y1="456.9" x2="352.02" y2="474.91" style="fill:none;stroke:#263238;stroke-linecap:round;stroke-linejoin:round"></line><line x1="411.76" y1="466.61" x2="414.85" y2="476.91" style="fill:none;stroke:#263238;stroke-linecap:round;stroke-linejoin:round"></line><line x1="408.85" y1="456.9" x2="410.68" y2="463.01" style="fill:none;stroke:#263238;stroke-linecap:round;stroke-linejoin:round"></line><line x1="474.78" y1="468.56" x2="477.69" y2="474.51" style="fill:none;stroke:#263238;stroke-linecap:round;stroke-linejoin:round"></line><line x1="468.88" y1="456.5" x2="473.38" y2="465.7" style="fill:none;stroke:#263238;stroke-linecap:round;stroke-linejoin:round"></line><line x1="459.92" y1="370.46" x2="467.68" y2="370.46" style="fill:none;stroke:#263238;stroke-linecap:round;stroke-linejoin:round"></line><line x1="433.66" y1="370.46" x2="454.58" y2="370.46" style="fill:none;stroke:#263238;stroke-linecap:round;stroke-linejoin:round"></line><line x1="449.67" y1="407.28" x2="469.68" y2="407.28" style="fill:none;stroke:#263238;stroke-linecap:round;stroke-linejoin:round"></line><line x1="105.21" y1="407.28" x2="101.1" y2="407.28" style="fill:none;stroke:#263238;stroke-linecap:round;stroke-linejoin:round"></line><line x1="127.51" y1="407.28" x2="108.47" y2="407.28" style="fill:none;stroke:#263238;stroke-linecap:round;stroke-linejoin:round"></line><line x1="106.3" y1="452.9" x2="62.68" y2="452.9" style="fill:none;stroke:#263238;stroke-linecap:round;stroke-linejoin:round"></line><line x1="96.73" y1="479.88" x2="92.3" y2="488.52" style="fill:none;stroke:#263238;stroke-linecap:round;stroke-linejoin:round"></line><line x1="108.31" y1="457.3" x2="98.79" y2="475.87" style="fill:none;stroke:#263238;stroke-linecap:round;stroke-linejoin:round"></line></g><g id="freepik--Character--inject-188"><path d="M157.09,336l-6.73,13.66s14.92,17.87,16.19,18.29,18.49,1.47,20,3.79L188,374s.63,3.78-.21,5.25-18.08,4.84-19.55,4.84-38.47-34.26-38.47-34.26l7.57-19.55Z" style="fill:#263238;stroke:#263238;stroke-linecap:round;stroke-linejoin:round"></path><path d="M172.64,327.75s-10.93,9.25-12.4,10.51-28.59-6.09-29-8.61S132.49,316,132.49,316s28.38-21.23,29.64-20.81S172.64,327.75,172.64,327.75Z" style="fill:#263238;stroke:#263238;stroke-linecap:round;stroke-linejoin:round"></path><path d="M236.85,323.86l15,14,8.29,3s4.15,13.83,4.75,15.42.59,5.92.59,5.92l-17,2.77-4-14s-2.37-.79-5.13-4.35-4-4.94-4-4.94l-11.26-9.88Z" style="fill:#fff;stroke:#263238;stroke-linecap:round;stroke-linejoin:round"></path><path d="M243,343.88s2.4,5.48,3.48,6.42,5.21,2.27,5.21,2.27,2.81,8.3,3.75,9.1,3.61.27,3.74-.8-2.54-9.23-2.67-10,.4-6.56.4-6.56" style="fill:#fff;stroke:#263238;stroke-linecap:round;stroke-linejoin:round"></path><path d="M258.48,350.17s1.88,7.09,2.55,11.23" style="fill:none;stroke:#263238;stroke-linecap:round;stroke-linejoin:round"></path><line x1="250.46" y1="354.85" x2="252.87" y2="362.87" style="fill:none;stroke:#263238;stroke-linecap:round;stroke-linejoin:round"></line><polygon points="185.87 253.91 211.16 289.87 236.85 323.86 224.4 333.34 207.41 320.5 189.42 306.27 174.21 262.6 185.87 253.91" style="fill:#e0e0e0;stroke:#263238;stroke-linecap:round;stroke-linejoin:round"></polygon><line x1="231.91" y1="319.71" x2="218.87" y2="327.81" style="fill:none;stroke:#263238;stroke-linecap:round;stroke-linejoin:round"></line><path d="M179.57,221.58s-37.55-3.93-56,4.17S61.76,284.9,60.78,287.11s-13,25.52-8.83,37.8S61,341.6,61,341.6s-15.22-3-21.11-4.67-9.82,6.14-10.31,11.78,2.21,6.39,2.7,9.82,0,30,4.66,33.63,25,6.62,27,2.45,1-9.32-2.45-11.78-4.17-7.36-4.17-7.36l6.38-7.86s5.64,0,9.57,2a52,52,0,0,0,7.12,2.94s2.45,4.42,3.19,4.91,7.36.25,7.36.25,38.78,18.16,43.69,18.65,23.81,5.4,29.7,2.95,9.32-6.63,10.31-15.47-18.17-30.43-21.11-34.36-13.75-15.95-13.75-15.95,2.21-3.44,1.48-5.89a11.1,11.1,0,0,0-2.46-4.18l-2.45-6.13L173,292.51s12.52-11.05,14.23-17.67a94,94,0,0,1,5.89-15Z" style="fill:#fff;stroke:#263238;stroke-linecap:round;stroke-linejoin:round"></path><path d="M136.38,317.3l-32.82-6.56s-7.2,7.52-4.69,8.14,38.18,7.51,38.18,7.51" style="fill:#fff;stroke:#263238;stroke-linecap:round;stroke-linejoin:round"></path><path d="M134.58,222.55a24.55,24.55,0,0,0,.9,8.63c2.17,7.51,6.32,23.12,6.32,23.12s14.23-7.11,20.36-7.11,24.1,15.61,24.1,15.61L185,236.9l-5.41-15.32S153.88,218.89,134.58,222.55Z" style="fill:#6F42C1;stroke:#263238;stroke-linecap:round;stroke-linejoin:round"></path><path d="M239.18,250.24a51.9,51.9,0,0,1-4.67,4.46c-1.42,1-5.68-.4-7.51,2s-.61,5.08-2,6.09-6.09-1.21-6.09-1.21-11.57,1.42-14,1.82-6.29-1.21-7.72-5.07l-1.42-3.86-3.65,1.83-4.27-33.1,7.92-4.06s12.19-9.54,14-11.57,8.53-5.89,20.71,2S246.09,241.91,239.18,250.24Z" style="fill:#fff;stroke:#263238;stroke-linecap:round;stroke-linejoin:round"></path><path d="M224.48,255.18c-1.14.45-2.26.33-2.49-.27s.5-1.45,1.64-1.9,2.26-.32,2.49.28S225.62,254.74,224.48,255.18Z" style="fill:#263238"></path><path d="M226.77,250.55a3.85,3.85,0,0,1,3.89,3.1" style="fill:none;stroke:#263238;stroke-linecap:round;stroke-linejoin:round"></path><path d="M210.79,257.54a4.23,4.23,0,0,0,1.22,3.78" style="fill:none;stroke:#263238;stroke-linecap:round;stroke-linejoin:round"></path><path d="M217.78,239.33s2,3.89,2.33,4,2.22-1.11,3.22-1.11,2.89,2.33,4.67,2.44,5.77-1.44,5.77-1.44L211.23,206s-5.55,5.22-6.77,6.33-8.73,6.82-8.73,6.82a33.72,33.72,0,0,0,1.73,7.17c1.22,3,4.78,6.33,4.78,6.33s5-3.77,11-3.22,5.88,5.44,5.66,7.22A4.76,4.76,0,0,1,217.78,239.33Z" style="fill:#263238;stroke:#263238;stroke-linecap:round;stroke-linejoin:round"></path><path d="M216.78,241.66s3.78-4,2.33-6.44-8.1-1.66-10.77,1.78-1.33,8.44.56,8.22l1.89-.23" style="fill:#fff;stroke:#263238;stroke-linecap:round;stroke-linejoin:round"></path><path d="M211.06,204.14l-7,4.83s1.36,9.47,3.09,12.56,3.67,5.6,5.41,6.57,5.8.77,7.73,2.89,4.44,7.34,5.79,8.12a21.26,21.26,0,0,0,4.83,1.35l-17.57-37.28Z" style="fill:#fff;stroke:#263238;stroke-linecap:round;stroke-linejoin:round"></path><path d="M208,197.19s4.25,18.93,8.5,24.34,6,6.18,6.95,7.92,5.8,13.91,12,21.25,9.85,9.46,11,7.53.19-10.82.19-10.82,10.43-8.11,12.17-14.29,2.9-9.27,2.9-9.27a11.82,11.82,0,0,0,1.16-6.19,35,35,0,0,0-13.91-22.4c-7.73-5.8-14.1-5.41-14.1-5.41s-10.63-.19-15.26,1.93-6.38,3.28-7.34,2.9S207,190.81,208,197.19Z" style="fill:#b2b2b2;stroke:#263238;stroke-linecap:round;stroke-linejoin:round"></path><path d="M237.26,196.75S255.19,200.6,261,219" style="fill:none;stroke:#263238;stroke-linecap:round;stroke-linejoin:round"></path><path d="M218.55,206.3a10,10,0,0,1,1.16,3.63c0,1.49-2,3-2,3s3.79,8.42,5,10.07" style="fill:none;stroke:#263238;stroke-linecap:round;stroke-linejoin:round"></path><polyline points="228.62 225.11 231.75 231.22 228.45 233.53" style="fill:none;stroke:#263238;stroke-linecap:round;stroke-linejoin:round"></polyline><path d="M246.93,245.57l-3.63-2.64-3.3,3a20.28,20.28,0,0,1-4.78-4.62" style="fill:none;stroke:#263238;stroke-linecap:round;stroke-linejoin:round"></path><polygon points="188.41 219.86 193.07 259.87 183.75 266.25 179.33 219.12 188.41 219.86" style="fill:#fff;stroke:#263238;stroke-linecap:round;stroke-linejoin:round"></polygon><polygon points="285.68 399.45 236.55 406.88 241.95 365.87 285.68 352.99 285.68 399.45" style="fill:#6F42C1;stroke:#263238;stroke-linecap:round;stroke-linejoin:round"></polygon><path d="M230.63,367.61l11.78,10.31,16.44,6.14,10.31,14.23s-.92,4.07-1.65,4.56-4.24,3.3-5.22,3.79-2.7,2.46-5.4,2.7c-1,.09-4.87-5-4.87-5s0,4.67-2,4.67-3-.72-3-2.68-2.38-3.81-2.38-3.81-7.86-7.12-8.84-7.86-6.14-7.61-6.14-7.61l-12.76-10.55Z" style="fill:#fff;stroke:#263238;stroke-linecap:round;stroke-linejoin:round"></path><polyline points="261.68 392.95 262.22 395.39 267.51 402.85" style="fill:none;stroke:#263238;stroke-linecap:round;stroke-linejoin:round"></polyline><polyline points="259.23 397.56 258.2 400.56 262.29 406.64" style="fill:none;stroke:#263238;stroke-linecap:round;stroke-linejoin:round"></polyline><line x1="252.59" y1="400.96" x2="251.64" y2="403.26" style="fill:none;stroke:#263238;stroke-linecap:round;stroke-linejoin:round"></line><polyline points="181.05 271.4 194.55 310.67 232.59 367.86 217.13 380.87 207.31 367.12 165.34 329.08 133.92 274.1" style="fill:#fff;stroke:#263238;stroke-linecap:round;stroke-linejoin:round"></polyline><line x1="215.56" y1="366.34" x2="211.06" y2="369.52" style="fill:none;stroke:#263238;stroke-linecap:round;stroke-linejoin:round"></line><line x1="225.76" y1="359.13" x2="217.96" y2="364.64" style="fill:none;stroke:#263238;stroke-linecap:round;stroke-linejoin:round"></line><path d="M71,349.14c-3.49-1.61-10-7.54-10-7.54s-15.22-3-21.11-4.67-9.82,6.14-10.31,11.78,2.21,6.39,2.7,9.82,0,30,4.66,33.63,25,6.62,27,2.45,1-9.32-2.45-11.78-4.17-7.36-4.17-7.36l6.38-7.86s5.64,0,9.57,2a52,52,0,0,0,7.12,2.94V352.64S74.49,350.75,71,349.14Z" style="fill:#263238;stroke:#263238;stroke-linecap:round;stroke-linejoin:round"></path><path d="M61.31,393.24c-3.22,1.61-19.9-2.42-21.51-5.11s-2.69-29.31-3-36.57c-.19-5.18,2.36-11.32,3.83-14.41l-.75-.22c-5.89-1.71-9.82,6.14-10.31,11.78s2.21,6.39,2.7,9.82,0,30,4.66,33.63,25,6.62,27,2.45a10.55,10.55,0,0,0,.93-3.26C63.83,391.94,62.57,392.61,61.31,393.24Z" style="fill:#fff;stroke:#263238;stroke-linecap:round;stroke-linejoin:round"></path><path d="M126.82,374.85l20.4,9.76s.94,3.36,6.71,5.64" style="fill:#fff;stroke:#263238;stroke-linecap:round;stroke-linejoin:round"></path><line x1="80.41" y1="352.64" x2="121.98" y2="372.53" style="fill:#fff;stroke:#263238;stroke-linecap:round;stroke-linejoin:round"></line><path d="M93.41,359s-2.14,9.8-1.07,14.9" style="fill:none;stroke:#263238;stroke-linecap:round;stroke-linejoin:round"></path><path d="M94.62,359.79s.27,9.79,1.61,14.49" style="fill:none;stroke:#263238;stroke-linecap:round;stroke-linejoin:round"></path><path d="M109.22,306.34c6.68,1.94,16.29,4.67,18.68,5,3.75.54,18.38-2.55,18.38-2.55" style="fill:none;stroke:#263238;stroke-linecap:round;stroke-linejoin:round"></path><path d="M102.54,304.37l3.7,1.1" style="fill:none;stroke:#263238;stroke-linecap:round;stroke-linejoin:round"></path><path d="M128.46,295.53c-8.39.9-18,1.88-23.78,2.27" style="fill:none;stroke:#263238;stroke-linecap:round;stroke-linejoin:round"></path><path d="M145.21,293.64s-5.66.67-13,1.48" style="fill:none;stroke:#263238;stroke-linecap:round;stroke-linejoin:round"></path><path d="M119.82,274.91c5.3,2,13.73,5,17.87,5.85" style="fill:none;stroke:#263238;stroke-linecap:round;stroke-linejoin:round"></path><path d="M115.15,273.11l2.55,1" style="fill:none;stroke:#263238;stroke-linecap:round;stroke-linejoin:round"></path><path d="M120.25,332c9-.61,21.06-1.24,18.92-.13-3.36,1.74-6.31.67-9.26,1.34" style="fill:none;stroke:#263238;stroke-linecap:round;stroke-linejoin:round"></path><path d="M111,332.68s2.28-.18,5.54-.41" style="fill:none;stroke:#263238;stroke-linecap:round;stroke-linejoin:round"></path></g></svg>
