<svg xmlns="http://www.w3.org/2000/svg" viewBox="0 0 500 500"><g id="freepik--Wall--inject-214"><g id="freepik--wall--inject-214"><g id="freepik--Tile--inject-214"><polygon points="337.5 321.53 338.1 321.18 338.1 257.39 282.86 225.5 282.26 225.84 337.5 257.74 337.5 321.53" style="fill:#6F42C1"></polygon><path d="M338.1,321.18h0a2.63,2.63,0,0,0,1.32-2.29V258a2.47,2.47,0,0,0-1.22-2.12L285.5,225.5a2.6,2.6,0,0,0-2.64,0h0l55.24,31.89Z" style="fill:#c8856a"></path><path d="M338.1,257.39h0v63.79a2.63,2.63,0,0,0,1.32-2.29V258a2.42,2.42,0,0,0-.33-1.22Z" style="fill:#af6152"></path><polygon points="282.26 225.84 337.5 257.74 337.5 321.53 282.26 289.63 282.26 225.84" style="fill:#6F42C1"></polygon><polygon points="282.26 225.84 337.5 257.74 337.5 321.53 282.26 289.63 282.26 225.84" style="fill:#fff;opacity:0.75"></polygon></g><g id="freepik--tile--inject-214"><polygon points="337.5 255.52 338.1 255.17 338.1 191.38 282.86 159.49 282.26 159.84 337.5 191.73 337.5 255.52" style="fill:#6F42C1"></polygon><path d="M338.1,255.17h0a2.63,2.63,0,0,0,1.32-2.28V192a2.44,2.44,0,0,0-1.22-2.11l-52.7-30.43a2.65,2.65,0,0,0-2.64,0h0l55.24,31.89Z" style="fill:#c8856a"></path><path d="M338.1,191.38h0v63.79a2.63,2.63,0,0,0,1.32-2.28V192a2.48,2.48,0,0,0-.33-1.22Z" style="fill:#af6152"></path><polygon points="282.26 159.84 337.5 191.73 337.5 255.52 282.26 223.62 282.26 159.84" style="fill:#6F42C1"></polygon><polygon points="282.26 159.84 337.5 191.73 337.5 255.52 282.26 223.62 282.26 159.84" style="fill:#fff;opacity:0.75"></polygon><path d="M287.68,97l51.74,29.88v63.79l-55.24-31.9V99A2.33,2.33,0,0,1,287.68,97Z" style="fill:#e0e0e0"></path></g><polygon points="339.42 190.62 284.18 158.73 282.86 159.49 338.1 191.38 338.1 255.17 337.5 255.52 282.86 223.97 282.86 225.5 338.1 257.39 338.1 321.18 339.42 320.37 339.42 190.62" style="fill:#455a64"></polygon><g id="freepik--tile--inject-214"><polygon points="394.66 354.53 395.26 354.18 395.26 290.39 340.02 258.5 339.42 258.85 394.66 290.74 394.66 354.53" style="fill:#6F42C1"></polygon><path d="M395.26,354.18h0a2.63,2.63,0,0,0,1.32-2.28V291a2.42,2.42,0,0,0-1.22-2.11l-52.7-30.43a2.65,2.65,0,0,0-2.64,0h0l55.24,31.89Z" style="fill:#c8856a"></path><path d="M395.26,290.39h0v63.79a2.63,2.63,0,0,0,1.32-2.28V291a2.47,2.47,0,0,0-.32-1.22Z" style="fill:#af6152"></path><polygon points="339.42 258.85 394.66 290.74 394.66 354.53 339.42 322.63 339.42 258.85" style="fill:#6F42C1"></polygon><polygon points="339.42 258.85 394.66 290.74 394.66 354.53 339.42 322.63 339.42 258.85" style="fill:#fff;opacity:0.75"></polygon></g><g id="freepik--tile--inject-214"><polygon points="394.66 288.52 395.26 288.18 395.26 224.39 340.02 192.49 339.42 192.84 394.66 224.73 394.66 288.52" style="fill:#6F42C1"></polygon><path d="M395.26,288.18h0a2.64,2.64,0,0,0,1.32-2.29V225a2.44,2.44,0,0,0-1.22-2.12l-52.7-30.43a2.65,2.65,0,0,0-2.64,0h0l55.24,31.9Z" style="fill:#c8856a"></path><path d="M395.26,224.39h0v63.79a2.64,2.64,0,0,0,1.32-2.29V225a2.48,2.48,0,0,0-.32-1.23Z" style="fill:#af6152"></path><polygon points="339.42 192.84 394.66 224.73 394.66 288.52 339.42 256.63 339.42 192.84" style="fill:#6F42C1"></polygon><polygon points="339.42 192.84 394.66 224.73 394.66 288.52 339.42 256.63 339.42 192.84" style="fill:#fff;opacity:0.75"></polygon></g><g id="freepik--tile--inject-214"><polygon points="394.66 222.52 395.26 222.17 395.26 158.38 340.02 126.49 339.42 126.83 394.66 158.73 394.66 222.52" style="fill:#6F42C1"></polygon><path d="M395.26,222.17h0a2.63,2.63,0,0,0,1.32-2.29V159a2.45,2.45,0,0,0-1.22-2.12l-52.7-30.42a2.6,2.6,0,0,0-2.64,0h0l55.24,31.89Z" style="fill:#c8856a"></path><path d="M395.26,158.38h0v63.79a2.63,2.63,0,0,0,1.32-2.29V159a2.41,2.41,0,0,0-.32-1.22Z" style="fill:#af6152"></path><polygon points="339.42 126.83 394.66 158.73 394.66 222.52 339.42 190.62 339.42 126.83" style="fill:#6F42C1"></polygon><polygon points="339.42 126.83 394.66 158.73 394.66 222.52 339.42 190.62 339.42 126.83" style="fill:#fff;opacity:0.75"></polygon></g><g id="freepik--tile--inject-214"><polygon points="394.66 156.51 395.26 156.16 395.26 92.37 340.02 60.48 339.42 60.82 394.66 92.72 394.66 156.51" style="fill:#6F42C1"></polygon><path d="M395.26,156.16h0a2.63,2.63,0,0,0,1.32-2.28V93a2.42,2.42,0,0,0-1.22-2.11l-52.7-30.43a2.65,2.65,0,0,0-2.64,0h0l55.24,31.89Z" style="fill:#c8856a"></path><path d="M395.26,92.37h0v63.79a2.63,2.63,0,0,0,1.32-2.28V93a2.47,2.47,0,0,0-.32-1.22Z" style="fill:#af6152"></path><polygon points="339.42 60.82 394.66 92.72 394.66 156.51 339.42 124.61 339.42 60.82" style="fill:#6F42C1"></polygon><polygon points="339.42 60.82 394.66 92.72 394.66 156.51 339.42 124.61 339.42 60.82" style="fill:#fff;opacity:0.75"></polygon></g><polygon points="340.02 58.95 340.02 60.48 395.26 92.38 395.26 92.38 395.26 156.16 394.66 156.51 340.02 124.96 340.02 126.49 395.26 158.38 395.26 222.17 394.66 222.52 339.42 190.63 339.42 192.84 340.02 192.49 395.26 224.39 395.26 288.18 394.66 288.52 339.42 256.63 339.42 258.85 340.02 258.5 395.26 290.39 395.26 354.18 396.58 353.37 396.58 91.61 340.02 58.95" style="fill:#455a64"></polygon><g id="freepik--tile--inject-214"><polygon points="451.83 387.53 452.43 387.19 452.43 323.4 397.18 291.5 396.58 291.85 451.83 323.74 451.83 387.53" style="fill:#6F42C1"></polygon><path d="M452.43,387.19h0a2.67,2.67,0,0,0,1.32-2.29V324.05a2.44,2.44,0,0,0-1.23-2.12l-52.7-30.43a2.65,2.65,0,0,0-2.64,0h0l55.25,31.9Z" style="fill:#c8856a"></path><path d="M452.43,323.4h0v63.79a2.67,2.67,0,0,0,1.32-2.29V324.05a2.49,2.49,0,0,0-.33-1.23Z" style="fill:#af6152"></path><polygon points="396.58 291.85 451.83 323.74 451.83 387.53 396.58 355.64 396.58 291.85" style="fill:#6F42C1"></polygon><polygon points="396.58 291.85 451.83 323.74 451.83 387.53 396.58 355.64 396.58 291.85" style="fill:#fff;opacity:0.75"></polygon></g><g id="freepik--tile--inject-214"><polygon points="451.83 321.52 452.43 321.18 452.43 257.39 397.18 225.5 396.58 225.84 451.83 257.74 451.83 321.52" style="fill:#6F42C1"></polygon><path d="M452.43,321.18h0a2.65,2.65,0,0,0,1.32-2.29V258a2.46,2.46,0,0,0-1.23-2.12l-52.7-30.43a2.65,2.65,0,0,0-2.64,0h0l55.25,31.9Z" style="fill:#c8856a"></path><path d="M452.43,257.39h0v63.79a2.65,2.65,0,0,0,1.32-2.29V258a2.42,2.42,0,0,0-.33-1.22Z" style="fill:#af6152"></path><polygon points="396.58 225.84 451.83 257.74 451.83 321.52 396.58 289.63 396.58 225.84" style="fill:#6F42C1"></polygon><polygon points="396.58 225.84 451.83 257.74 451.83 321.52 396.58 289.63 396.58 225.84" style="fill:#fff;opacity:0.75"></polygon></g><g id="freepik--tile--inject-214"><polygon points="451.83 255.52 452.43 255.17 452.43 191.38 397.18 159.49 396.58 159.83 451.83 191.73 451.83 255.52" style="fill:#6F42C1"></polygon><path d="M452.43,255.17h0a2.65,2.65,0,0,0,1.32-2.28V192a2.43,2.43,0,0,0-1.23-2.11l-52.7-30.43a2.65,2.65,0,0,0-2.64,0h0l55.25,31.89Z" style="fill:#c8856a"></path><path d="M452.43,191.38h0v63.79a2.65,2.65,0,0,0,1.32-2.28V192a2.48,2.48,0,0,0-.33-1.22Z" style="fill:#af6152"></path><polygon points="396.58 159.83 451.83 191.73 451.83 255.52 396.58 223.62 396.58 159.83" style="fill:#6F42C1"></polygon><polygon points="396.58 159.83 451.83 191.73 451.83 255.52 396.58 223.62 396.58 159.83" style="fill:#fff;opacity:0.75"></polygon></g><g id="freepik--tile--inject-214"><polygon points="451.83 189.51 452.43 189.16 452.43 125.38 397.18 93.48 396.58 93.83 451.83 125.72 451.83 189.51" style="fill:#6F42C1"></polygon><path d="M452.43,189.17h0a2.67,2.67,0,0,0,1.32-2.29V126a2.43,2.43,0,0,0-1.23-2.11l-52.7-30.43a2.65,2.65,0,0,0-2.64,0h0l55.25,31.9Z" style="fill:#c8856a"></path><path d="M452.43,125.38h0v63.79a2.67,2.67,0,0,0,1.32-2.29V126a2.48,2.48,0,0,0-.33-1.22Z" style="fill:#af6152"></path><polygon points="396.58 93.83 451.83 125.72 451.83 189.51 396.58 157.62 396.58 93.83" style="fill:#6F42C1"></polygon><polygon points="396.58 93.83 451.83 125.72 451.83 189.51 396.58 157.62 396.58 93.83" style="fill:#fff;opacity:0.75"></polygon></g><polygon points="396.58 91.61 396.58 93.83 397.18 93.48 452.43 125.38 452.43 125.38 452.43 189.17 451.83 189.51 396.58 157.62 396.58 159.83 397.18 159.49 452.43 191.38 452.43 255.17 451.83 255.52 396.58 223.62 396.58 225.84 397.18 225.5 452.43 257.39 452.43 321.18 451.83 321.52 396.58 289.63 396.58 291.85 397.18 291.5 452.43 323.4 452.43 387.19 453.75 386.37 453.75 124.61 396.58 91.61" style="fill:#455a64"></polygon><path d="M336.09,136.31A1.81,1.81,0,0,1,334.9,135a3.78,3.78,0,0,1-.09-.95c0-1.68.33-3.39-.63-4.88a3.36,3.36,0,0,0-2.93-1.61c-2.12.15-5.2,4.56-7.17,2.07a5.59,5.59,0,0,1-.67-2.74,12,12,0,0,0-.47-3.17,4.27,4.27,0,0,0-4.09-3,6.81,6.81,0,0,0-3.73,1.63,3.56,3.56,0,0,1-2.75.74c-.77-.26-1.16-1.48-1.31-2.2-.24-1.15-.13-2.33-.47-3.46a7.46,7.46,0,0,0-1.8-3c-1.24-1.25-3.63-1-5,0-.82.59-1.48,1.78-2.47,2.08a1.92,1.92,0,0,1-1.77-.65,3.86,3.86,0,0,1-.95-2.27c-.22-1.61,0-3.25-.63-4.78a3.42,3.42,0,0,0-3.33-2.24c-1.41.07-2.3,1.06-3.16,2.06s-2.07,2.1-3.28,1a2.54,2.54,0,0,1-.81-1.88c0-.38-.71-.68-.75-.23a3.11,3.11,0,0,0,1.93,3.22,3,3,0,0,0,3.31-1.15c.89-1,1.83-2.43,3.36-2.14,1.7.33,2.08,2.41,2.15,3.85.09,1.67,0,3.56,1.09,4.93a3.33,3.33,0,0,0,2.58,1.29c1.22,0,1.79-.85,2.58-1.64a3.77,3.77,0,0,1,3.59-1.23,2.2,2.2,0,0,1,.67.41,6,6,0,0,1,1.89,4.09c.23,1.63.16,3.17,1.4,4.44s2.55,1,3.93.17c.57-.34,1.08-.75,1.65-1.07a3.65,3.65,0,0,1,4.13.16,5.18,5.18,0,0,1,1.39,3.77c.08,1.36.13,2.85,1,3.88a3.34,3.34,0,0,0,1.18.85,2.91,2.91,0,0,0,1.42.3c2.14-.14,3-2.59,5.07-2.83a2,2,0,0,1,.93.12c1.76.62,1.92,2.37,1.9,4a6.46,6.46,0,0,0,.54,3.31,2.51,2.51,0,0,0,1.26,1.12,2.72,2.72,0,0,0,1.72-.09.49.49,0,0,0-.1-.73c-.39-.28-.68,0-1.07-.08Z" style="opacity:0.15"></path><path d="M336.09,147.92a1.81,1.81,0,0,1-1.19-1.28,3.78,3.78,0,0,1-.09-.95c0-1.68.33-3.4-.63-4.88a3.33,3.33,0,0,0-2.93-1.61c-2.12.14-5.2,4.55-7.17,2.06a5.56,5.56,0,0,1-.67-2.74,11.9,11.9,0,0,0-.47-3.16,4.26,4.26,0,0,0-4.09-3.05,6.87,6.87,0,0,0-3.73,1.62,3.53,3.53,0,0,1-2.75.75c-.77-.27-1.16-1.49-1.31-2.21-.24-1.15-.13-2.32-.47-3.46a7.59,7.59,0,0,0-1.8-3c-1.24-1.24-3.63-1-5,0-.82.58-1.48,1.78-2.47,2.07a1.87,1.87,0,0,1-1.77-.65,3.81,3.81,0,0,1-.95-2.26c-.22-1.61,0-3.25-.63-4.79a3.44,3.44,0,0,0-3.33-2.24c-1.41.07-2.3,1.07-3.16,2.07s-2.07,2.09-3.28.94a2.53,2.53,0,0,1-.81-1.88c0-.38-.71-.67-.75-.23a3.13,3.13,0,0,0,1.93,3.23,3,3,0,0,0,3.31-1.15c.89-1,1.83-2.43,3.36-2.14,1.7.33,2.08,2.4,2.15,3.84.09,1.67,0,3.56,1.09,4.94A3.36,3.36,0,0,0,301.1,129c1.22,0,1.79-.86,2.58-1.65a3.79,3.79,0,0,1,3.59-1.22,2,2,0,0,1,.67.41,6,6,0,0,1,1.89,4.09c.23,1.62.16,3.16,1.4,4.44s2.55,1,3.93.16c.57-.33,1.08-.75,1.65-1.06a3.63,3.63,0,0,1,4.13.16,5.16,5.16,0,0,1,1.39,3.76c.08,1.37.13,2.86,1,3.89a3.34,3.34,0,0,0,1.18.85,2.9,2.9,0,0,0,1.42.29c2.14-.14,3-2.58,5.07-2.83a2.28,2.28,0,0,1,.93.12c1.76.62,1.92,2.37,1.9,4a6.45,6.45,0,0,0,.54,3.31,2.48,2.48,0,0,0,1.26,1.13,2.66,2.66,0,0,0,1.72-.1.5.5,0,0,0-.1-.73c-.39-.28-.68,0-1.07-.07Z" style="opacity:0.15"></path><path d="M336.09,159.53a1.82,1.82,0,0,1-1.19-1.29,3.74,3.74,0,0,1-.09-1c0-1.67.33-3.39-.63-4.88a3.38,3.38,0,0,0-2.93-1.61c-2.12.15-5.2,4.56-7.17,2.07a5.56,5.56,0,0,1-.67-2.74,12,12,0,0,0-.47-3.17,4.27,4.27,0,0,0-4.09-3.05,6.89,6.89,0,0,0-3.73,1.63,3.52,3.52,0,0,1-2.75.74c-.77-.26-1.16-1.48-1.31-2.2-.24-1.15-.13-2.32-.47-3.46a7.46,7.46,0,0,0-1.8-3c-1.24-1.25-3.63-1-5,0-.82.59-1.48,1.78-2.47,2.08a1.92,1.92,0,0,1-1.77-.65,3.86,3.86,0,0,1-.95-2.26c-.22-1.62,0-3.25-.63-4.79a3.42,3.42,0,0,0-3.33-2.24c-1.41.07-2.3,1.06-3.16,2.06s-2.07,2.1-3.28.95a2.53,2.53,0,0,1-.81-1.88c0-.38-.71-.67-.75-.23a3.11,3.11,0,0,0,1.93,3.22,3,3,0,0,0,3.31-1.15c.89-1,1.83-2.43,3.36-2.13,1.7.32,2.08,2.4,2.15,3.84.09,1.67,0,3.56,1.09,4.94a3.35,3.35,0,0,0,2.58,1.28c1.22,0,1.79-.85,2.58-1.64a3.76,3.76,0,0,1,3.59-1.22,2,2,0,0,1,.67.4,6.06,6.06,0,0,1,1.89,4.1c.23,1.62.16,3.16,1.4,4.43s2.55,1,3.93.17c.57-.34,1.08-.75,1.65-1.07a3.63,3.63,0,0,1,4.13.17,5.15,5.15,0,0,1,1.39,3.76c.08,1.36.13,2.86,1,3.89a3.44,3.44,0,0,0,1.18.84,2.91,2.91,0,0,0,1.42.3c2.14-.14,3-2.59,5.07-2.83a2,2,0,0,1,.93.12c1.76.62,1.92,2.37,1.9,4a6.46,6.46,0,0,0,.54,3.31,2.51,2.51,0,0,0,1.26,1.12,2.66,2.66,0,0,0,1.72-.09.49.49,0,0,0-.1-.73c-.39-.28-.68,0-1.07-.07Z" style="opacity:0.15"></path><path d="M336.09,171.13a1.81,1.81,0,0,1-1.19-1.28,3.78,3.78,0,0,1-.09-.95c0-1.68.33-3.39-.63-4.88a3.36,3.36,0,0,0-2.93-1.61c-2.12.14-5.2,4.55-7.17,2.07a5.59,5.59,0,0,1-.67-2.74,11.91,11.91,0,0,0-.47-3.17,4.27,4.27,0,0,0-4.09-3,6.81,6.81,0,0,0-3.73,1.63,3.56,3.56,0,0,1-2.75.74c-.77-.27-1.16-1.49-1.31-2.2-.24-1.16-.13-2.33-.47-3.46a7.46,7.46,0,0,0-1.8-3c-1.24-1.25-3.63-1-5,0-.82.59-1.48,1.78-2.47,2.07a1.87,1.87,0,0,1-1.77-.65,3.81,3.81,0,0,1-.95-2.26c-.22-1.61,0-3.25-.63-4.79a3.45,3.45,0,0,0-3.33-2.24c-1.41.08-2.3,1.07-3.16,2.07s-2.07,2.09-3.28,1a2.56,2.56,0,0,1-.81-1.88c0-.39-.71-.68-.75-.23a3.11,3.11,0,0,0,1.93,3.22,3,3,0,0,0,3.31-1.15c.89-1,1.83-2.43,3.36-2.14,1.7.33,2.08,2.4,2.15,3.84.09,1.68,0,3.57,1.09,4.94a3.33,3.33,0,0,0,2.58,1.29c1.22,0,1.79-.85,2.58-1.64a3.77,3.77,0,0,1,3.59-1.23,2,2,0,0,1,.67.41,6,6,0,0,1,1.89,4.09c.23,1.63.16,3.17,1.4,4.44s2.55,1,3.93.17c.57-.34,1.08-.76,1.65-1.07a3.65,3.65,0,0,1,4.13.16,5.18,5.18,0,0,1,1.39,3.77c.08,1.36.13,2.85,1,3.88a3.34,3.34,0,0,0,1.18.85,3,3,0,0,0,1.42.3c2.14-.14,3-2.59,5.07-2.83a2,2,0,0,1,.93.12c1.76.61,1.92,2.37,1.9,4a6.5,6.5,0,0,0,.54,3.32,2.51,2.51,0,0,0,1.26,1.12,2.72,2.72,0,0,0,1.72-.09.51.51,0,0,0-.1-.74c-.39-.27-.68,0-1.07-.07Z" style="opacity:0.15"></path><path d="M336.09,182.74a1.81,1.81,0,0,1-1.19-1.28,3.86,3.86,0,0,1-.09-1c0-1.67.33-3.39-.63-4.87a3.33,3.33,0,0,0-2.93-1.61c-2.12.14-5.2,4.55-7.17,2.06a5.56,5.56,0,0,1-.67-2.74,11.84,11.84,0,0,0-.47-3.16,4.24,4.24,0,0,0-4.09-3.05,6.87,6.87,0,0,0-3.73,1.62,3.48,3.48,0,0,1-2.75.74c-.77-.26-1.16-1.48-1.31-2.2-.24-1.15-.13-2.32-.47-3.46a7.52,7.52,0,0,0-1.8-3c-1.24-1.24-3.63-.95-5,0-.82.58-1.48,1.78-2.47,2.07a1.92,1.92,0,0,1-1.77-.65,3.81,3.81,0,0,1-.95-2.26c-.22-1.61,0-3.25-.63-4.79a3.44,3.44,0,0,0-3.33-2.24c-1.41.07-2.3,1.07-3.16,2.06s-2.07,2.1-3.28.95a2.53,2.53,0,0,1-.81-1.88c0-.38-.71-.67-.75-.23a3.13,3.13,0,0,0,1.93,3.23,3,3,0,0,0,3.31-1.15c.89-1,1.83-2.43,3.36-2.14,1.7.33,2.08,2.4,2.15,3.84.09,1.67,0,3.56,1.09,4.94a3.36,3.36,0,0,0,2.58,1.29c1.22,0,1.79-.86,2.58-1.65a3.76,3.76,0,0,1,3.59-1.22,2,2,0,0,1,.67.41,6,6,0,0,1,1.89,4.09c.23,1.62.16,3.16,1.4,4.43s2.55,1,3.93.17c.57-.33,1.08-.75,1.65-1.06a3.63,3.63,0,0,1,4.13.16,5.16,5.16,0,0,1,1.39,3.76c.08,1.37.13,2.86,1,3.89a3.46,3.46,0,0,0,1.18.85A3,3,0,0,0,326,178c2.14-.14,3-2.59,5.07-2.83a2.12,2.12,0,0,1,.93.12c1.76.62,1.92,2.37,1.9,4a6.45,6.45,0,0,0,.54,3.31,2.51,2.51,0,0,0,1.26,1.12,2.59,2.59,0,0,0,1.72-.09.5.5,0,0,0-.1-.73c-.39-.28-.68,0-1.07-.07Z" style="opacity:0.15"></path><path d="M337.5,255.52v-10l-8.48,5.1Zm0,66h0l-1.76-1h0Zm-9-5.19-20.9-12.07,20.9,12.07Zm10.9-72h0v12.27l24.21,14,31-18.65V224.73l-11.53-6.66Zm-17.16,2.36,15.24-9.16V226.12l-24.93,15Zm69.49,40.12,2.91-1.75h0v-8.5l-10.12,6.08Zm-9.1-3-43.23,26h0v8.51L389.87,288ZM367,272.58l-3.41-2h0Zm0,66L378.1,345l16.56-10h0v-42l-52.17,31.36Zm-84.78-59.84v10.89l25.36,14.64,29.88-18V257.74l-10.37-6Zm132.19-174.6-17.87,10.75v37.29l49.49-29.78Zm-17.87,121.7v25l21.19-12.73Zm42.09,24.3-42.09,25.29v8.51l49.3-29.64ZM396.58,93.83l17.87,10.31L396.58,93.83Zm-94.15,77.65L282.26,183.6V221l51.85-31.2Zm35.07,148V311l-9,5.39,7.22,4.17Zm-26.81-77.2-28.43,17.11v11.42l38.12-22.93ZM367,76.77,339.42,60.82v39.56L373,80.2ZM339.42,258.85v26.31l22.33-13.42Zm19-121-19,11.43h0v37.33l50.67-30.48-23-13.31Zm89.32,115.36,4.07-2.44v-8.5L440.55,249ZM396.58,210v13.64l23.07,13.32,32.18-19.34V191.73l-12.71-7.34ZM434.11,311.3l17.72-10.65v-42L398.5,290.74ZM396.58,190.57V202l35.79-21.52-9.72-5.61Zm27.95-16.82,9.72,5.61,17.58-10.57V157.33Zm27.3,15.76V176.75L441,183.26Zm0,198V339l-41.17,24.75Zm-19.46-207,6.75,3.89-6.75-3.89Zm-35.79-20.67,26.07,15.06-26.07-15.06Zm0,132,0,0v42l35.65-21.42Zm-6.53-135.78,4.57,2.64-4.57-2.64Zm4.57,66.43V211.13L385,216.94ZM378.26,213l16.4-9.87V191.73l-26.11,15.71Zm-1.88,1.13,6.75,3.9-6.75-3.9Zm-9.71-5.6L339.42,225V236.4l37-22.23L367,208.79ZM393.55,92.08l1.11.64-1.11-.64ZM367,140.56,392,155l2.69-1.62V116l-34.34,20.64Zm29.54,151.29,0,0,0,0ZM339.42,108.34h0v16.27l54.13-32.53-13.82-8Z" style="fill:#fff;opacity:0.4"></path><path d="M335.9,225.21l1.5-1.14-1.5-2.88c-.27-.5-.27-1.07,0-1.26s.68,0,.94.54l1.51,2.88,1.51-1.14c.26-.19.68,0,.94.55s.26,1.06,0,1.26l-1.51,1.14L340.8,228c.26.5.26,1.07,0,1.26s-.68,0-.94-.54l-1.51-2.88L336.84,227c-.26.19-.68-.05-.94-.55S335.63,225.41,335.9,225.21Z" style="fill:#fff"></path><path d="M393.22,258.22l1.5-1.14-1.5-2.89c-.27-.5-.27-1.06,0-1.26s.68,0,.94.55l1.51,2.88,1.51-1.14c.26-.2.68.05.94.55s.26,1.06,0,1.26l-1.51,1.14,1.51,2.88c.26.5.26,1.06,0,1.26s-.68-.05-.94-.54l-1.51-2.89L394.16,260c-.26.2-.68,0-.94-.54S393,258.41,393.22,258.22Z" style="fill:#fff"></path><path d="M336.23,224.77l1.51-1.14-1.51-2.88c-.26-.5-.26-1.06,0-1.26s.68,0,.94.54l1.51,2.89,1.51-1.14c.26-.2.69,0,.95.54s.26,1.07,0,1.26l-1.51,1.14,1.51,2.89c.26.49.26,1.06,0,1.26s-.69-.05-.95-.55l-1.51-2.88-1.51,1.14c-.26.2-.68-.05-.94-.55S336,225,336.23,224.77Z" style="fill:#fff"></path><path d="M393.55,257.78l1.51-1.14-1.51-2.88c-.26-.5-.26-1.07,0-1.26s.68,0,.94.54l1.51,2.88,1.51-1.14c.26-.19.69.05.95.55s.26,1.06,0,1.26L397,257.73l1.51,2.88c.26.5.26,1.07,0,1.26s-.69,0-.95-.54L396,258.45l-1.51,1.14c-.26.19-.68,0-.94-.55S393.29,258,393.55,257.78Z" style="fill:#fff"></path><path d="M393.55,191.2l1.51-1.14-1.51-2.88c-.26-.5-.26-1.06,0-1.26s.68.05.94.54l1.51,2.89,1.51-1.14c.26-.2.69,0,.95.54s.26,1.07,0,1.26L397,191.15l1.51,2.89c.26.49.26,1.06,0,1.26s-.69-.05-.95-.55L396,191.87,394.49,193c-.26.2-.68,0-.94-.55S393.29,191.4,393.55,191.2Z" style="fill:#fff"></path><path d="M393.55,124.63l1.51-1.14-1.51-2.89c-.26-.5-.26-1.06,0-1.26s.68,0,.94.55l1.51,2.88,1.51-1.14c.26-.2.69.05.95.55s.26,1.06,0,1.26L397,124.58l1.51,2.88c.26.5.26,1.06,0,1.26s-.69-.05-.95-.55L396,125.29l-1.51,1.14c-.26.2-.68,0-.94-.54S393.29,124.82,393.55,124.63Z" style="fill:#fff"></path><path d="M366.12,143.13l1.51-1.14-1.51-2.89c-.26-.5-.26-1.06,0-1.26s.69,0,.95.55l1.51,2.88,1.51-1.14c.26-.2.68.05.94.55s.26,1.06,0,1.26l-1.51,1.14L371,146c.26.5.26,1.06,0,1.26s-.68-.05-.94-.54l-1.51-2.89-1.51,1.14c-.26.2-.69,0-.95-.54S365.86,143.32,366.12,143.13Z" style="fill:#fff"></path><path d="M366.12,209.16l1.51-1.14-1.51-2.88c-.26-.5-.26-1.06,0-1.26s.69.05.95.55l1.51,2.88,1.51-1.14c.26-.2.68.05.94.54s.26,1.07,0,1.27l-1.51,1.14L371,212c.26.5.26,1.06,0,1.26s-.68,0-.94-.55l-1.51-2.88L367.07,211c-.26.2-.69-.05-.95-.54S365.86,209.36,366.12,209.16Z" style="fill:#fff"></path><path d="M366.12,275.2l1.51-1.14-1.51-2.88c-.26-.5-.26-1.06,0-1.26s.69.05.95.55l1.51,2.88,1.51-1.14c.26-.2.68,0,.94.54s.26,1.07,0,1.26l-1.51,1.14L371,278c.26.5.26,1.06,0,1.26s-.68-.05-.94-.55l-1.51-2.88L367.07,277c-.26.2-.69-.05-.95-.55S365.86,275.4,366.12,275.2Z" style="fill:#fff"></path><path d="M307.73,241.28l1.5-1.15-1.5-2.88c-.27-.5-.27-1.06,0-1.26s.68,0,.94.55l1.51,2.88,1.51-1.14c.26-.2.68.05.94.55s.26,1.06,0,1.26l-1.5,1.14,1.5,2.88c.26.5.26,1.06,0,1.26s-.68-.05-.94-.55l-1.51-2.88-1.51,1.14c-.26.2-.68-.05-.94-.54S307.46,241.47,307.73,241.28Z" style="fill:#fff"></path><path d="M423,176.09l1.51-1.14L423,172.06c-.26-.49-.26-1.06,0-1.26s.68,0,.95.55l1.5,2.88,1.51-1.14c.26-.2.69,0,.95.55s.26,1.06,0,1.26L426.41,176l1.51,2.88c.26.5.26,1.06,0,1.26s-.69,0-.95-.54l-1.51-2.89-1.5,1.14c-.27.2-.69,0-.95-.54S422.75,176.28,423,176.09Z" style="fill:#fff"></path><path d="M423,242.13l1.51-1.15L423,238.1c-.26-.5-.26-1.06,0-1.26s.68,0,.95.55l1.5,2.88,1.51-1.14c.26-.2.69.05.95.55s.26,1.06,0,1.26l-1.51,1.14,1.51,2.88c.26.5.26,1.06,0,1.26s-.69-.05-.95-.55l-1.51-2.88-1.5,1.14c-.27.2-.69,0-.95-.54S422.75,242.32,423,242.13Z" style="fill:#fff"></path><path d="M423,308.16l1.51-1.14L423,304.14c-.26-.5-.26-1.06,0-1.26s.68.05.95.55l1.5,2.88,1.51-1.14c.26-.2.69,0,.95.54s.26,1.07,0,1.26l-1.51,1.15,1.51,2.88c.26.5.26,1.06,0,1.26s-.69-.05-.95-.55l-1.51-2.88L424,310c-.27.2-.69-.05-.95-.55S422.75,308.36,423,308.16Z" style="fill:#fff"></path><path d="M336.23,292.19l1.51-1.14-1.51-2.88c-.26-.5-.26-1.06,0-1.26s.68,0,.94.55l1.51,2.88,1.51-1.14c.26-.2.69,0,.95.54s.26,1.07,0,1.26l-1.51,1.14,1.51,2.89c.26.5.26,1.06,0,1.26s-.69-.05-.95-.55l-1.51-2.88L337.17,294c-.26.2-.68-.05-.94-.55S336,292.39,336.23,292.19Z" style="fill:#fff"></path><path d="M393.55,325.2l1.51-1.14-1.51-2.88c-.26-.5-.26-1.07,0-1.26s.68,0,.94.54l1.51,2.88,1.51-1.14c.26-.19.69.05.95.55s.26,1.06,0,1.26L397,325.15l1.51,2.88c.26.5.26,1.07,0,1.26s-.69,0-.95-.54L396,325.87,394.49,327c-.26.19-.68-.05-.94-.55S393.29,325.4,393.55,325.2Z" style="fill:#fff"></path></g></g><g id="freepik--pile-of-tiles--inject-214"><g id="freepik--pile-of-tiles--inject-214"><g id="freepik--tile--inject-214"><polygon points="280.46 406.26 280.46 406.95 335.7 438.85 390.94 406.95 390.94 406.26 335.7 438.16 280.46 406.26" style="fill:#6F42C1"></polygon><path d="M280.46,407h0a2.63,2.63,0,0,0,1.32,2.29l52.7,30.43a2.47,2.47,0,0,0,2.44,0l52.7-30.43a2.63,2.63,0,0,0,1.32-2.29h0l-55.24,31.9Z" style="fill:#c8856a"></path><path d="M335.7,438.85h0L280.46,407a2.63,2.63,0,0,0,1.32,2.29l52.7,30.43a2.43,2.43,0,0,0,1.22.33Z" style="fill:#af6152"></path><polygon points="390.94 406.26 335.7 438.16 280.46 406.26 335.7 374.37 390.94 406.26" style="fill:#6F42C1"></polygon><polygon points="390.94 406.26 335.7 438.16 280.46 406.26 335.7 374.37 390.94 406.26" style="fill:#fff;opacity:0.7000000000000001"></polygon><path d="M307,391l-7.34,26.39,13.53,7.81,12.52-45Zm51-3.72-12.61,45.35,21.5-12.42,6.67-24Zm-41.28,39.95,2.82,1.63,14.93-53.72-3.9,2.26Z" style="fill:#fff;opacity:0.4"></path></g><g id="freepik--tile--inject-214"><polygon points="280.46 402.4 280.46 403.09 335.7 434.99 390.94 403.09 390.94 402.4 335.7 434.29 280.46 402.4" style="fill:#6F42C1"></polygon><path d="M280.46,403.09h0a2.65,2.65,0,0,0,1.32,2.29l52.7,30.42a2.42,2.42,0,0,0,2.44,0l52.7-30.42a2.65,2.65,0,0,0,1.32-2.29h0L335.7,435Z" style="fill:#c8856a"></path><path d="M335.7,435h0l-55.24-31.89a2.65,2.65,0,0,0,1.32,2.29l52.7,30.42a2.43,2.43,0,0,0,1.22.33Z" style="fill:#af6152"></path><polygon points="390.94 402.4 335.7 434.29 280.46 402.4 335.7 370.5 390.94 402.4" style="fill:#6F42C1"></polygon><polygon points="390.94 402.4 335.7 434.29 280.46 402.4 335.7 370.5 390.94 402.4" style="fill:#fff;opacity:0.7000000000000001"></polygon><path d="M307,387.09l-7.34,26.38,13.53,7.82,12.52-45Zm51-3.73-12.61,45.35,21.5-12.41,6.67-24Zm-41.28,40,2.82,1.62,14.93-53.71-3.9,2.25Z" style="fill:#fff;opacity:0.4"></path></g><g id="freepik--tile--inject-214"><polygon points="280.46 398.53 280.46 399.23 335.7 431.12 390.94 399.23 390.94 398.53 335.7 430.43 280.46 398.53" style="fill:#6F42C1"></polygon><path d="M280.46,399.23h0a2.63,2.63,0,0,0,1.32,2.28l52.7,30.43a2.47,2.47,0,0,0,2.44,0l52.7-30.43a2.63,2.63,0,0,0,1.32-2.29h0l-55.24,31.9Z" style="fill:#c8856a"></path><path d="M335.7,431.12h0l-55.24-31.89a2.63,2.63,0,0,0,1.32,2.28l52.7,30.43a2.43,2.43,0,0,0,1.22.33Z" style="fill:#af6152"></path><polygon points="390.94 398.53 335.7 430.43 280.46 398.53 335.7 366.64 390.94 398.53" style="fill:#6F42C1"></polygon><polygon points="390.94 398.53 335.7 430.43 280.46 398.53 335.7 366.64 390.94 398.53" style="fill:#fff;opacity:0.7000000000000001"></polygon><path d="M307,383.22l-7.34,26.39,13.53,7.81,12.52-45Zm51-3.72-12.61,45.35,21.5-12.42,6.67-23.95Zm-41.28,39.95,2.82,1.63,14.93-53.72-3.9,2.26Z" style="fill:#fff;opacity:0.4"></path></g><g id="freepik--tile--inject-214"><polygon points="280.46 394.67 280.46 395.36 335.7 427.25 390.94 395.36 390.94 394.67 335.7 426.56 280.46 394.67" style="fill:#6F42C1"></polygon><path d="M280.46,395.36h0a2.65,2.65,0,0,0,1.32,2.29l52.7,30.42a2.42,2.42,0,0,0,2.44,0l52.7-30.42a2.65,2.65,0,0,0,1.32-2.29h0L335.7,427.25Z" style="fill:#c8856a"></path><path d="M335.7,427.25h0l-55.24-31.89a2.65,2.65,0,0,0,1.32,2.29l52.7,30.42a2.43,2.43,0,0,0,1.22.33Z" style="fill:#af6152"></path><polygon points="390.94 394.67 335.7 426.56 280.46 394.67 335.7 362.77 390.94 394.67" style="fill:#6F42C1"></polygon><polygon points="390.94 394.67 335.7 426.56 280.46 394.67 335.7 362.77 390.94 394.67" style="fill:#fff;opacity:0.7000000000000001"></polygon><path d="M307,379.36l-7.34,26.38,13.53,7.82,12.52-45Zm51-3.73L345.36,421l21.5-12.41,6.67-24Zm-41.28,40,2.82,1.62,14.93-53.71-3.9,2.25Z" style="fill:#fff;opacity:0.4"></path></g><g id="freepik--tile--inject-214"><polygon points="280.46 390.8 280.46 391.5 335.7 423.39 390.94 391.5 390.94 390.8 335.7 422.7 280.46 390.8" style="fill:#6F42C1"></polygon><path d="M280.46,391.5h0a2.63,2.63,0,0,0,1.32,2.28l52.7,30.43a2.47,2.47,0,0,0,2.44,0l52.7-30.43a2.63,2.63,0,0,0,1.32-2.29h0l-55.24,31.9Z" style="fill:#c8856a"></path><path d="M335.7,423.39h0L280.46,391.5a2.63,2.63,0,0,0,1.32,2.28l52.7,30.43a2.43,2.43,0,0,0,1.22.33Z" style="fill:#af6152"></path><polygon points="390.94 390.8 335.7 422.7 280.46 390.8 335.7 358.91 390.94 390.8" style="fill:#6F42C1"></polygon><polygon points="390.94 390.8 335.7 422.7 280.46 390.8 335.7 358.91 390.94 390.8" style="fill:#fff;opacity:0.85"></polygon><path d="M307,375.49l-7.34,26.39,13.53,7.81,12.52-45Zm51-3.72-12.61,45.35,21.5-12.42,6.67-23.95Zm-41.28,40,2.82,1.63,14.93-53.72-3.9,2.26Z" style="fill:#fff;opacity:0.4"></path></g><g id="freepik--tile--inject-214"><polygon points="280.46 386.94 280.46 387.63 335.7 419.52 390.94 387.63 390.94 386.94 335.7 418.83 280.46 386.94" style="fill:#6F42C1"></polygon><path d="M280.46,387.63h0a2.65,2.65,0,0,0,1.32,2.29l52.7,30.42a2.42,2.42,0,0,0,2.44,0l52.7-30.42a2.65,2.65,0,0,0,1.32-2.29h0L335.7,419.52Z" style="fill:#c8856a"></path><path d="M335.7,419.52h0l-55.24-31.89a2.65,2.65,0,0,0,1.32,2.29l52.7,30.42a2.43,2.43,0,0,0,1.22.33Z" style="fill:#af6152"></path><polygon points="390.94 386.94 335.7 418.83 280.46 386.94 335.7 355.04 390.94 386.94" style="fill:#6F42C1"></polygon><polygon points="390.94 386.94 335.7 418.83 280.46 386.94 335.7 355.04 390.94 386.94" style="fill:#fff;opacity:0.85"></polygon><path d="M307,371.63,299.64,398l13.53,7.82,12.52-45Zm51-3.73-12.61,45.35,21.5-12.41,6.67-24Zm-41.28,40,2.82,1.62,14.93-53.71-3.9,2.25Z" style="fill:#fff;opacity:0.4"></path></g><g id="freepik--tile--inject-214"><polygon points="280.46 383.07 280.46 383.76 335.7 415.66 390.94 383.76 390.94 383.07 335.7 414.97 280.46 383.07" style="fill:#6F42C1"></polygon><path d="M280.46,383.77h0a2.63,2.63,0,0,0,1.32,2.28l52.7,30.43a2.42,2.42,0,0,0,2.44,0l52.7-30.43a2.63,2.63,0,0,0,1.32-2.28h0L335.7,415.66Z" style="fill:#c8856a"></path><path d="M335.7,415.66h0l-55.24-31.89a2.63,2.63,0,0,0,1.32,2.28l52.7,30.43a2.43,2.43,0,0,0,1.22.33Z" style="fill:#af6152"></path><polygon points="390.94 383.07 335.7 414.97 280.46 383.07 335.7 351.18 390.94 383.07" style="fill:#6F42C1"></polygon><polygon points="390.94 383.07 335.7 414.97 280.46 383.07 335.7 351.18 390.94 383.07" style="fill:#fff;opacity:0.85"></polygon><path d="M307,367.76l-7.34,26.39L313.17,402l12.52-45ZM358,364l-12.61,45.35L366.86,397l6.67-24ZM316.69,404l2.82,1.63,14.93-53.72-3.9,2.26Z" style="fill:#fff;opacity:0.4"></path></g><g id="freepik--tile--inject-214"><polygon points="280.46 379.21 280.46 379.9 335.7 411.8 390.94 379.9 390.94 379.21 335.7 411.1 280.46 379.21" style="fill:#6F42C1"></polygon><path d="M280.46,379.9h0a2.65,2.65,0,0,0,1.32,2.29l52.7,30.42a2.42,2.42,0,0,0,2.44,0l52.7-30.42a2.65,2.65,0,0,0,1.32-2.29h0L335.7,411.8Z" style="fill:#c8856a"></path><path d="M335.7,411.8h0l-55.24-31.9a2.65,2.65,0,0,0,1.32,2.29l52.7,30.42a2.43,2.43,0,0,0,1.22.33Z" style="fill:#af6152"></path><polygon points="390.94 379.21 335.7 411.1 280.46 379.21 335.7 347.31 390.94 379.21" style="fill:#6F42C1"></polygon><polygon points="390.94 379.21 335.7 411.1 280.46 379.21 335.7 347.31 390.94 379.21" style="fill:#fff;opacity:0.85"></polygon><path d="M307,363.9l-7.34,26.38,13.53,7.82,12.52-45Zm51-3.73-12.61,45.35,21.5-12.41,6.67-24Zm-41.28,40,2.82,1.62L334.44,348l-3.9,2.25Z" style="fill:#fff;opacity:0.4"></path></g><g id="freepik--tile--inject-214"><polygon points="280.46 375.34 280.46 376.04 335.7 407.93 390.94 376.04 390.94 375.34 335.7 407.24 280.46 375.34" style="fill:#6F42C1"></polygon><path d="M280.46,376h0a2.63,2.63,0,0,0,1.32,2.28l52.7,30.43a2.42,2.42,0,0,0,2.44,0l52.7-30.43a2.63,2.63,0,0,0,1.32-2.28h0L335.7,407.93Z" style="fill:#c8856a"></path><path d="M335.7,407.93h0L280.46,376a2.63,2.63,0,0,0,1.32,2.28l52.7,30.43a2.43,2.43,0,0,0,1.22.33Z" style="fill:#af6152"></path><polygon points="390.94 375.34 335.7 407.24 280.46 375.34 335.7 343.45 390.94 375.34" style="fill:#6F42C1"></polygon><polygon points="390.94 375.34 335.7 407.24 280.46 375.34 335.7 343.45 390.94 375.34" style="fill:#fff;opacity:0.85"></polygon><path d="M307,360l-7.34,26.39,13.53,7.81,12.52-45Zm51-3.72-12.61,45.35,21.5-12.41,6.67-24Zm-41.28,39.95,2.82,1.63,14.93-53.72-3.9,2.26Z" style="fill:#fff;opacity:0.4"></path></g><g id="freepik--tile--inject-214"><polygon points="280.46 371.48 280.46 372.17 335.7 404.06 390.94 372.17 390.94 371.48 335.7 403.37 280.46 371.48" style="fill:#6F42C1"></polygon><path d="M280.46,372.17h0a2.65,2.65,0,0,0,1.32,2.29l52.7,30.42a2.42,2.42,0,0,0,2.44,0l52.7-30.42a2.65,2.65,0,0,0,1.32-2.29h0l-55.24,31.9Z" style="fill:#c8856a"></path><path d="M335.7,404.07h0l-55.24-31.9a2.65,2.65,0,0,0,1.32,2.29l52.7,30.42a2.43,2.43,0,0,0,1.22.33Z" style="fill:#af6152"></path><polygon points="390.94 371.48 335.7 403.37 280.46 371.48 335.7 339.58 390.94 371.48" style="fill:#6F42C1"></polygon><polygon points="390.94 371.48 335.7 403.37 280.46 371.48 335.7 339.58 390.94 371.48" style="fill:#fff;opacity:0.85"></polygon><path d="M307,356.17l-7.34,26.39,13.53,7.81,12.52-45Zm51-3.73L345.36,397.8l21.5-12.42,6.67-24Zm-41.28,40,2.82,1.62,14.93-53.71-3.9,2.25Z" style="fill:#fff;opacity:0.4"></path></g></g></g><g id="freepik--Trowel--inject-214"><g id="freepik--trowel--inject-214"><g id="freepik--trowel--inject-214"><path d="M261.39,373.44A2.71,2.71,0,0,1,260.2,376L239,388.06a5.54,5.54,0,1,1-5.47-9.62l21.22-12.08a2.74,2.74,0,0,1,2.8.27A8.65,8.65,0,0,1,261.39,373.44Z" style="fill:#6F42C1"></path><path d="M261.39,373.44a8.71,8.71,0,0,0-2.47-5.67c1.59,2.27,1.81,4.44-3,7.2s-15.34,8.82-17.39,10-6,2.41-8-1.23a5.38,5.38,0,0,0,.68,2.37,5.62,5.62,0,0,0,7.71,2L260.2,376A2.72,2.72,0,0,0,261.39,373.44Z" style="opacity:0.15"></path><path d="M232.41,383.25a4.21,4.21,0,0,1,1.88,3.29,1.32,1.32,0,0,1-.58,1.22l-1.6.9L229.47,384l1.59-.89A1.3,1.3,0,0,1,232.41,383.25Z" style="fill:#455a64"></path><path d="M232.67,387.44c0,1.21-.86,1.69-1.9,1.08a4.17,4.17,0,0,1-1.87-3.29c0-1.21.86-1.69,1.9-1.08A4.17,4.17,0,0,1,232.67,387.44Z" style="fill:#263238"></path><path d="M232,387.05a2.71,2.71,0,0,0-1.21-2.12.81.81,0,0,0-.9-.05l-3.9,2.25a11.54,11.54,0,0,0-5.76,10v3.36a10.62,10.62,0,0,1-5.28,9.16l-3.15,1.82,1.71,3,3.15-1.82a14,14,0,0,0,7-12.13v-3.36a8.11,8.11,0,0,1,4-7l3.93-2.27h0A.86.86,0,0,0,232,387.05Z" style="fill:#37474f"></path><path d="M232.92,419.25l-31.24-18a3.7,3.7,0,0,0-4.87,1.14l-19.44,29.18a2.51,2.51,0,0,0-.5,1.31c0,.18,0,.87,0,1,0,.74.69,1.08,1.94.8l53.73-11.93c1-.22,1.49-.64,1.5-1.12,0-.18,0-.89,0-1.06C234,420.15,233.68,419.68,232.92,419.25Z" style="fill:#263238"></path><path d="M201.68,401.21l31.24,18c1.65.95,1.48,2.05-.37,2.46l-53.73,11.93c-1.85.41-2.5-.54-1.45-2.11l19.44-29.18A3.7,3.7,0,0,1,201.68,401.21Z" style="fill:#455a64"></path></g></g></g><g id="freepik--Character--inject-214"><g id="freepik--character--inject-214"><g id="freepik--Top--inject-214"><g id="freepik--Arm--inject-214"><g id="freepik--arm--inject-214"><path d="M237.8,167.7c-6.45,4.32-17.38,8.57-17.38,8.57s-7.61-13.39-12.11-21.35c-11.41-20.18-13.43-25.37-28-26.47l-1,37.37s3.79,6.27,15.66,22.24c3.44,4.63,4.86,6.24,11.21,13.07,4.37,4.71,8.37,7.13,12.67,6.51,3.16-.45,7.47-2.35,13.22-6.51a140.6,140.6,0,0,0,18.86-16.32Z" style="fill:#ffa8a7"></path><path d="M179.68,128c8.46.5,12.44,1.16,17,5.87s9.26,13.45,12.65,19.52,8.53,16.18,8.53,16.18A39.11,39.11,0,0,0,203.33,176a23.24,23.24,0,0,0-8.63,12.29L178.43,169Z" style="fill:#e0e0e0"></path><path d="M220.42,176.27s-7.06,2.2-10.3,12.56c0,0-.84-9.13,9.29-14.36Z" style="fill:#f28f8f"></path></g><path id="freepik--Hand--inject-214" d="M270.42,170.16c-5.22,5.26-9.86,6.45-13.67,9.24-3.06,2.23-4.17,3.92-7.4,6.9,0,0-13.28-8.55-11.55-18.6,2.89-2.67,5.4-4.12,6.91-6.57,1-1.59.75-6.47.91-8.26.26-3,1.72-5.91,2.91-8.65.81-1.86,1.34-3.83,2.07-5.72.24-.63.41-1.53,1.21-1.52a2.66,2.66,0,0,1,2.23,1.69c1.38,3,.3,5.9.22,9.05a.71.71,0,0,0,.21.65c.25.17.59,0,.83-.22,2-1.63,4.39-3.57,6.9-4.39a3,3,0,0,1,.87-.16c1.87.05,3.41,2.42,4.24,3.86a14.82,14.82,0,0,1,1.92,6.91C269.47,162.29,270.42,170.16,270.42,170.16Z" style="fill:#f28f8f"></path><path d="M213.57,161.15c-2-1.32-8.37-2.09-17.24,5.14s-9.49,13.41-9.54,14.52c-.11,2.61,3.33,4.79,4.33,5.83s1.86,3.68,3.16,4.24a3.71,3.71,0,0,0,2.74-.1l-1.63-2.25s.29-5.17,9.27-11.88,12.67-5.78,12.67-5.78l1.16,2a2.4,2.4,0,0,0,.66-2.84,16.11,16.11,0,0,0-2.53-4C215.5,164.52,216.67,163.19,213.57,161.15Z" style="fill:#e0e0e0"></path><path d="M213.57,161.15c-2-1.32-8.37-2.09-17.24,5.14s-9.49,13.41-9.54,14.52c-.11,2.61,3.33,4.79,4.33,5.83s1.86,3.68,3.16,4.24a3.71,3.71,0,0,0,2.74-.1l-1.63-2.25s.29-5.17,9.27-11.88,12.67-5.78,12.67-5.78l1.16,2a2.4,2.4,0,0,0,.66-2.84,16.11,16.11,0,0,0-2.53-4C215.5,164.52,216.67,163.19,213.57,161.15Z" style="opacity:0.15"></path></g><path id="freepik--Chest--inject-214" d="M194.4,172.38c1.5-17.25,0-32.46-12-44.71,0,0-15.8-2-22.88-1.42-5.3.45-10.88-1-19.06,1.67-6.36,2.06-14.47,4.32-23.39,7.71a27.56,27.56,0,0,0-12.57,24.52c.83,15.85,1.33,21.53,2,37.1.59,14.19-1.37,18.79-4.27,35.32,8.39,16.08,67,24.39,90.33-4.95C189.91,220,192.76,191.19,194.4,172.38Z" style="fill:#f0f0f0"></path><g id="freepik--Head--inject-214"><g id="freepik--head--inject-214"><path d="M142.59,72.38s-5-.32-7.81,3.21-5,10.31-2.92,18.41c2.3,8.91,7.74,17.88,8.86,20.44a6.83,6.83,0,0,0,3.72,3.43l.48-10.6.14-7.4s6.33-5,7.22-10.23c1.14-6.77-1.24-10.82-1.24-10.82Z" style="fill:#263238"></path><path d="M177.88,87.32a27.47,27.47,0,0,0-9.46-2.74l-8.83-1.21-9.45-1.3s-10-2.41-9.5-9.58a10.89,10.89,0,0,1,2.56-6.25,22,22,0,0,1,5.62-4.65A27.47,27.47,0,0,1,163,57.88a44.85,44.85,0,0,1,11.54,1.85c2.56.68,5.16,1.47,7.79,1.22,1.89-.17,4-1.13,4.41-3a8.16,8.16,0,0,1,.22,8.93,5.83,5.83,0,0,1,5.3,4.71c.55,2.8-.89,4.92-2.66,6.87.22-.24,1.09,1.86,1.16,2A6.32,6.32,0,0,1,191,84.4c-.49,1.83-2.24,3-4,3.73A10.27,10.27,0,0,1,177.88,87.32Z" style="fill:#263238"></path><path d="M135,109.68c5.3,3.06,8.11-1.1,8.11-1.1l-2.94,21.29c7.1,16.48,35.8,16.13,29.09,3l.55-6.13a25.45,25.45,0,0,0,4.78-.12c7.73-.83,10-5.23,11.58-10.46,2.44-8.14,3-19.65,1-33.1-.38-2.6-1.29-5.46-3.55-6.79C178,73,172.34,76.74,164,79.33c-3.45,1.07-11.64,1.06-13.72-.1,2.61,3.33,1.88,13.2-2.58,16.91a9,9,0,0,1-2.28,2.57c-1.89,1.42-3.06-2.67-4.44-4.34s-6.89-3.44-9.66,1.51A10,10,0,0,0,135,109.68Z" style="fill:#ffa8a7"></path><path d="M169.84,126.74c-6.37-.49-11.73-1.63-15.93-4.27-3.46-2.17-8.09-7.86-8.82-13-.48,8.09,2.23,12.1,7.71,15.5s12.59,4.5,16.75,4.88Z" style="fill:#f28f8f"></path><path d="M164.23,86.41l-5.11,2.86a3.08,3.08,0,0,1,1.17-4.09A2.85,2.85,0,0,1,164.23,86.41Z" style="fill:#263238"></path><path d="M184.77,89.54l-5.09-3a2.83,2.83,0,0,1,3.95-1.13A3.1,3.1,0,0,1,184.77,89.54Z" style="fill:#263238"></path><path d="M161.08,93.78a2.39,2.39,0,1,0,2.47-2.29A2.39,2.39,0,0,0,161.08,93.78Z" style="fill:#263238"></path><path d="M178.94,94.31a2.39,2.39,0,1,0,2.47-2.3A2.18,2.18,0,0,0,178.94,94.31Z" style="fill:#263238"></path><path d="M171.45,90.74l.88,15.29,8.21-2.39A35.59,35.59,0,0,0,171.45,90.74Z" style="fill:#f28f8f"></path><path d="M164.06,106.77l9.49,3.45a5.3,5.3,0,0,1-6.65,3.08A4.94,4.94,0,0,1,164.06,106.77Z" style="fill:#b16668"></path><path d="M169.24,113.54a7.17,7.17,0,0,0-5.49-5.55,4.89,4.89,0,0,0,3.15,5.31A5.07,5.07,0,0,0,169.24,113.54Z" style="fill:#f28f8f"></path></g></g></g><g id="freepik--Bottom--inject-214"><path d="M155.62,308.85c-1.3,1.23-6.47-.91-9.61-3.35s-11.68-6.38-15-8.16a86.31,86.31,0,0,0-14.27-5.24c-7.79-1.84-11.2-2.1-15-6a8.33,8.33,0,0,1-2.41-6.53s3,3.64,14.73,1.84,18-5.13,22.2-4.5,15.32,3.84,22.63-1.92c2.27-1.8,1.32-4.55.35-4.87,1.84,1,2.38,2.53,2.89,4.1.34,1,.74,2.39,1,3.32.76,2.37,2,6.84,5.17,9,1.73,1.2,2.34,1.56,1.71,3Z" style="fill:#37474f"></path><path d="M101.85,274.48c-3.48,2.92-3.07,4.48-2.67,6.74s1.38,2.93,3.69,3.75c2.88,1,8.07,1,13.18,0s15.69-5.13,18.91-4.83,8.57,2.48,15,1.85,9.13-2.42,10.77-4a4.12,4.12,0,0,0,1.33-3.69s-.07-4-5.25-5.29C152.36,267.87,101.85,274.48,101.85,274.48Z" style="fill:#263238"></path><path d="M169.34,289.26c-5-1.95-7.48,4.83-10,7.69s-4,3-9.18,1.57A30.54,30.54,0,0,0,142,297.4s4.34,1.54,6.05,3.44-.54,3.19,1.89,4.62c3.79,2.24,7.67,4.57,10.07,6l5.92,3.91,14.73,9.31,7-28.24Z" style="fill:#ffa8a7"></path><path d="M99.29,279.54c-1.11-4,9.58-12.22,22.09-12.61s11.37,2.31,20.19,1.69,12.85-1.35,17.63,1.47c2.33,1.35,3,6.11-5.49,8.15s-14.61-.82-18.59-1.05-11.07,3.36-22.55,5.16C103.34,283.8,100.23,282.9,99.29,279.54Z"></path><path d="M104.5,319.83c-1.29,1.23-6.46-.92-9.61-3.36s-11.68-6.37-15-8.16a86.23,86.23,0,0,0-14.27-5.23c-7.79-1.84-11.2-2.1-15-6a8.37,8.37,0,0,1-2.4-6.54s3,3.65,14.72,1.84,17.95-5.12,22.2-4.49,15.33,3.83,22.63-1.93c2.28-1.79,1.33-4.55.35-4.87,1.85,1,2.38,2.54,2.9,4.1.33,1,.73,2.4,1,3.33.75,2.37,2,6.84,5.16,9,1.73,1.21,2.34,1.57,1.72,3Z" style="fill:#455a64"></path><path d="M50.73,285.46c-3.48,2.92-3.07,4.48-2.66,6.74s1.38,2.93,3.68,3.75c2.88,1,8.08,1,13.18,0s15.7-5.14,18.91-4.83,8.58,2.48,15,1.85,9.13-2.42,10.77-4a4.16,4.16,0,0,0,1.34-3.7s-.07-4-5.26-5.28C101.25,278.85,50.73,285.46,50.73,285.46Z" style="fill:#263238"></path><path d="M118.22,300.24c-5-2-7.47,4.83-10,7.69s-4,3-9.18,1.57a30.77,30.77,0,0,0-8.22-1.13s4.34,1.54,6.06,3.45-.55,3.18,1.88,4.62c3.79,2.24,7.67,4.56,10.07,6l5.92,3.92,14.74,9.3,6.95-28.23Z" style="fill:#ffa8a7"></path><path d="M48.18,290.51c-1.11-4,9.58-12.21,22.08-12.61s11.37,2.32,20.2,1.69,12.84-1.35,17.62,1.47c2.33,1.35,3,6.12-5.49,8.16S88,288.4,84,288.17s-11.07,3.35-22.54,5.16C52.22,294.78,49.11,293.87,48.18,290.51Z"></path><g id="freepik--Legs--inject-214"><path d="M245.71,298.52C239,283.26,213,249.28,200,232.63c-4.94-6.29-6.69-14.06-6.3-22,1.82-37.56.47-63-10.45-83.12l-8.24-.63c5.93,12.26,7.88,22.34,8.74,36.94L145,166.05c-3.14-19.76-5.61-26.05-9.08-37a53.17,53.17,0,0,0-11.21,3.47c11.86,26.79,10.08,43.71,6.45,68.12-1.75,11.78-15.4,18-26.32,13.24h0c-9,31-4.54,51.86,7.76,69.09A257.53,257.53,0,0,0,131,305.12l-4.48-1.7a23.65,23.65,0,0,0-6.82,11.3c-2.49,10.11-.73,14.38-.73,14.38s19.14,13.77,37.94,23.48c19.82,10.25,34.17,8,43.3-1.75,4.36-4.64,5.74-12.41,3.36-22.1l1.39.44c21.27,6.76,33.86,7.44,42.08-3.09C251.9,319.86,251.07,310.68,245.71,298.52Z" style="fill:#6F42C1"></path><path d="M245.71,298.52C239,283.26,213,249.28,200,232.63c-4.94-6.29-6.69-14.06-6.3-22,1.82-37.56.47-63-10.45-83.12l-8.24-.63c5.93,12.26,7.88,22.34,8.74,36.94L145,166.05c-3.14-19.76-5.61-26.05-9.08-37a53.17,53.17,0,0,0-11.21,3.47c11.86,26.79,10.08,43.71,6.45,68.12-1.75,11.78-15.4,18-26.32,13.24h0c-9,31-4.54,51.86,7.76,69.09A257.53,257.53,0,0,0,131,305.12l-4.48-1.7a23.65,23.65,0,0,0-6.82,11.3c-2.49,10.11-.73,14.38-.73,14.38s19.14,13.77,37.94,23.48c19.82,10.25,34.17,8,43.3-1.75,4.36-4.64,5.74-12.41,3.36-22.1l1.39.44c21.27,6.76,33.86,7.44,42.08-3.09C251.9,319.86,251.07,310.68,245.71,298.52Z" style="fill:#fff;opacity:0.35000000000000003"></path><path d="M196.74,228.38c.11-.1.2-.22.31-.32-.14-.27-.28-.55-.41-.83l-1.07.91c-.08-.27-.17-.54-.24-.79-.14-.52-.3-1-.47-1.56a19.87,19.87,0,0,0-1.13-2.75l1.07-.86c-.1-.36-.19-.73-.27-1.1-1.38,1.1-2.79,2.16-4.27,3.14a60.82,60.82,0,0,1-8.71,4.78,78,78,0,0,1-19.68,5.7A129.59,129.59,0,0,1,139,236a134.62,134.62,0,0,1-20.55-1.63c-6-1.07-12-3-16.91-6.62-.07.41-.13.82-.2,1.23a39.79,39.79,0,0,0,14.35,6,112.41,112.41,0,0,0,20.05,2,7.22,7.22,0,0,0-.1,1.45c0,.68,0,1.36.05,2a19.79,19.79,0,0,0,.22,2,10.27,10.27,0,0,0,.31,1.62,123.31,123.31,0,0,1-18.11-1.57c-6.29-1.11-12.53-3.18-17.59-7.15,0,.46-.08.91-.11,1.35a39.08,39.08,0,0,0,14.73,6.32c-1.16,5.9.6,12,3,17.33,2.77,6,6.41,11.63,9.79,17.32l21.43,36.07c4,6.65,7.93,13.29,11.85,20-2.93,1.13-6.17.06-8.9-1.19-3.26-1.48-6.39-3.31-9.56-5l-19.38-10.29-3.84-2c-.08.36-.17.72-.24,1.06L132,323l10.13,5.38c3.22,1.71,6.41,3.56,9.73,5.08s7.08,2.55,10.55.93a.44.44,0,0,0,.18-.57c-7.17-12-14.25-24-21.37-36q-3.55-6-7.12-12a6.32,6.32,0,0,0,5.1-4.45c.95-2.89.48-6.17,0-9.1-1.09-6.14-3.47-11.94-5.58-17.78-1.14-3.17-2.17-6.38-3.12-9.61,1.75.1,3.49.17,5.23.23a143,143,0,0,0,23.59-.87,89.08,89.08,0,0,0,11-2.14c.57,2.05,1.33,4.06,2,6.07s1.47,4.23,2.16,6.37a32.14,32.14,0,0,1,1.94,11c.29-.32.6-.67.9-1-.2-5.09-2.17-10.3-3.81-14.92-.9-2.53-1.71-5.11-2.75-7.59.87-.23,1.74-.48,2.6-.75.29,1,.79,2,1.16,2.92s.75,1.87,1.11,2.82c.74,2,1.42,4,2.08,6.06a55,55,0,0,1,1.81,6.16,19,19,0,0,1,.32,2.14c.25-.34.51-.69.75-1.05,0-.3-.1-.62-.16-.93a56.28,56.28,0,0,0-1.87-6.31c-.71-2.13-1.44-4.25-2.24-6.35-.4-1-.81-2.06-1.26-3.08a20.29,20.29,0,0,0-1.24-2.52c2-.63,4-1.33,5.94-2.14A56,56,0,0,0,196.74,228.38Zm-61.8,33.11a81.12,81.12,0,0,1,2.5,8.32,31.74,31.74,0,0,1,1.05,8.61c-.14,2.8-1.64,6.52-5,6.46q-1.47-2.49-3-5-2.67-4.51-5.36-9c-1.64-2.76-3.29-5.53-4.75-8.4a45.35,45.35,0,0,1-3.85-9.86,25.59,25.59,0,0,1-.5-9.39,95.4,95.4,0,0,0,13.8,1.66C130.75,250.63,133.06,256.05,134.94,261.49Zm58.25-38c.28.81.57,1.6.83,2.41.16.5.32,1,.46,1.52s.2.91.35,1.35l-1.6,1.27-.2-.5c-.2-.54-.41-1.08-.62-1.62s-.45-1.13-.67-1.7a13.31,13.31,0,0,0-.55-1.3C191.87,224.43,192.54,224,193.19,223.46Zm-54.52,20.71-1.6,0c0-.24-.09-.48-.14-.72s-.12-.66-.18-1c-.09-.61-.17-1.23-.22-1.85s-.08-1.24-.08-1.86a12.06,12.06,0,0,0,0-1.7l3.16.08c0,.41,0,.84,0,1.23a20.5,20.5,0,0,0,.11,2.07,30.85,30.85,0,0,0,.62,3.81Zm22.86-1.3A124,124,0,0,1,141,244.21a30.72,30.72,0,0,1-.62-3.68c-.06-.68-.1-1.36-.13-2,0-.46,0-.93-.05-1.39a132.86,132.86,0,0,0,19.44-1,80.66,80.66,0,0,0,20.44-5.3,61.87,61.87,0,0,0,10.62-5.59c.1.32.23.64.33.93.21.57.41,1.15.62,1.72l.6,1.65c.1.28.2.55.31.83a1.21,1.21,0,0,0,.05.14c-.87.65-1.75,1.29-2.65,1.89a59.53,59.53,0,0,1-8.72,4.78A77.51,77.51,0,0,1,161.53,242.87Z" style="fill:#6F42C1;opacity:0.5"></path><g style="opacity:0.4"><path d="M126.52,303.42l4.48,1.7h0s22.2,26.73,32.78,29.33a43.4,43.4,0,0,1-23.26-11.89C134,315.88,126.52,303.42,126.52,303.42Z" style="fill:#6F42C1"></path><path d="M247,326.08c-8.23,10.52-20.81,9.85-42.08,3.09l-1.4-.45a52.16,52.16,0,0,0-2.34-7.24c-5.54-13.87-29.34-51.57-29.34-51.57s14.23-11.16,16.93-29.79c2.92,15.32-7.77,29.11-7.77,29.11s26,32.31,36,46.9c7.86,11.45,18.23,12.92,25.8,9.05,6.76-3.45,7.35-9.39,7.41-10.18A16.36,16.36,0,0,1,247,326.08Z" style="fill:#6F42C1"></path><path d="M194.38,333.7a115.06,115.06,0,0,0-7.2-16.21q-4.2-7.8-9.11-15.17c-3.26-4.91-6.71-9.69-10.42-14.27l9.09,15.11c3,5,5.92,10.11,8.65,15.28,1.39,2.57,2.7,5.18,4,7.81.61,1.33,1.26,2.64,1.84,4l.86,2c.29.67.59,1.34.84,2a63.14,63.14,0,0,1,4.56,16.85v-2.21c0-.37,0-.74,0-1.11l-.11-1.1-.23-2.22-.4-2.19A62.44,62.44,0,0,0,194.38,333.7ZM238,313.3a62.62,62.62,0,0,0-3.32-8.25,114.62,114.62,0,0,0-9-15.26q-5.07-7.28-10.8-14c-3.81-4.5-7.79-8.84-12-13l10.78,13.94c3.54,4.68,7.05,9.37,10.36,14.18,1.68,2.4,3.28,4.84,4.84,7.31.76,1.24,1.56,2.46,2.29,3.73l1.08,1.89c.37.64.75,1.26,1.08,1.91A62.94,62.94,0,0,1,239.76,322l-.24-2.2c-.05-.36-.08-.73-.14-1.1l-.24-1.08-.48-2.17Z" style="fill:#6F42C1"></path></g></g></g><g id="freepik--tile--inject-214"><polygon points="263.39 195.81 264 195.46 264 131.68 208.75 99.78 208.15 100.13 263.39 132.02 263.39 195.81" style="fill:#6F42C1"></polygon><path d="M264,195.46h0a2.63,2.63,0,0,0,1.32-2.28V132.32a2.42,2.42,0,0,0-1.22-2.11l-52.7-30.43a2.65,2.65,0,0,0-2.64,0h0L264,131.67Z" style="fill:#c8856a"></path><path d="M264,131.67h0v63.79a2.63,2.63,0,0,0,1.32-2.28V132.32a2.47,2.47,0,0,0-.32-1.22Z" style="fill:#af6152"></path><polygon points="208.15 100.13 263.39 132.02 263.39 195.81 208.15 163.91 208.15 100.13" style="fill:#6F42C1"></polygon><polygon points="208.15 100.13 263.39 132.02 263.39 195.81 208.15 163.91 208.15 100.13" style="fill:#fff;opacity:0.75"></polygon><path d="M235.77,116.07l-27.62-15.94v39.55L241.7,119.5ZM229.05,176l6.72,3.88,24.93,14.4,2.7-1.63V155.34Zm19.41-52.58-40.31,24.24h0v16.28l54.13-32.54Z" style="fill:#fff;opacity:0.4"></path><g id="freepik--hand--inject-214"><path d="M270.27,145.25c.54-3.46.21-3.72-1.44-4.52a9,9,0,0,0-8.22-.07c-2.22,1.19-4.51,2.28-5.37,3.46s1.35,3.12,4.61,2.31c5.13-1.28,5.73,0,5.73,0a65.34,65.34,0,0,0-6.48,2c-1.75.76-4.46,3.13-6.25,4.41s-.92,4,2.81,3.19l-3.28,2.35c-2.29,1.65-2.48,3.4.26,4a4,4,0,0,0,2.68-.28s-2.66,1.33-2.27,2.24c1.11,2.61,3.09,2.45,9.24,1.31,1.73-.31,4.59.62,5.67.86,1.37.57,2,2,2.46,3.76l3.26-4.84a4.8,4.8,0,0,0-.65-5.66s3-1.41,2.22-3.3a10.41,10.41,0,0,0-2.65-3.52,3.58,3.58,0,0,0,.11-3.81,5.81,5.81,0,0,0-2.66-2.64Z" style="fill:#ffa8a7"></path><path d="M255.66,156a18.41,18.41,0,0,1,3.06-2,11.46,11.46,0,0,1,3.63-.58,41.83,41.83,0,0,1,7.16.19,42.76,42.76,0,0,1-7.09.86,18.64,18.64,0,0,0-3.43.3C257.94,155.09,256.81,155.63,255.66,156Z" style="fill:#f28f8f"></path><path d="M255.32,162a7.9,7.9,0,0,1,3.45-1.86,20.42,20.42,0,0,1,3.86-.62,36.34,36.34,0,0,1,7.73.2,74,74,0,0,1-7.65.85C260.17,160.77,257.68,160.87,255.32,162Z" style="fill:#f28f8f"></path></g></g><g id="freepik--arm--inject-214"><g id="freepik--arm--inject-214"><path d="M104.12,148.45c2.22-3.68,7.07-9.91,12.73-11.13,5.41,4.74,8.68,14.2,12.09,17.91,6.43,7,28.76,30.09,28.76,30.09S190,170.8,193.14,167.4c1.37-1.49,2.54-7,3.11-8.9a41.62,41.62,0,0,1,3.3-8.34A9.58,9.58,0,0,1,201,148a3.52,3.52,0,0,1,1.44-1,1.79,1.79,0,0,1,1.17.15s1.42-3.06,1.95-4c1.37-2.36,3.3-5.78,4.85-8a12.81,12.81,0,0,1,1.6-1.72,1.74,1.74,0,0,1,2.59.63c.53.83.16,2.54-.2,3.44-.47,1.17-1.79,3.79-2.26,5,1.3-2.11,2.66-4.7,3.8-6.29a16,16,0,0,1,2.35-2.65,7.93,7.93,0,0,1,2.75-1.7,2.31,2.31,0,0,1,2.87,2.22,3.17,3.17,0,0,1,3,1.93c.51,1.2-.58,3.69-1.7,5.35,1.81-.85,3.58.92,3.5,2.57-.06,1.42-1.91,4.34-2.56,5.61-2.58,5.08-4.75,9.32-5.67,13-.53,2.12-2,6.89-2.59,9a18.52,18.52,0,0,1-6.73,10.2c-1.49,1.15-3.23,2.15-6.48,4.4-6.53,4.52-16,11.15-19.32,13.58-4.72,3.46-11.13,8.47-18.34,12.46-10.44,5.77-15.47,5-22.33.47s-22.6-18.27-33.18-28.77C101.78,174.27,100.14,155.06,104.12,148.45Z" style="fill:#ffa8a7"></path><path d="M225.2,141.37c1.94-1,4.16,1.31,3.47,3.27a36.74,36.74,0,0,1-2.52,5.3l-1.71,3.51a67.23,67.23,0,0,0-5.17,14.64l-1.06,3.77a19.09,19.09,0,0,1-6.35,9.91c-3.66,2.71-9.12,6.22-12.83,9-7.61,5.13-18,13-25.55,18-9.43,5.81-18.46,11.71-28.8,4a22.88,22.88,0,0,0,7.07,3.15c7.87,1.42,15-3.79,21.32-7.74,7.36-5.11,17.88-13,25.4-18.16l6.41-4.47c4.26-2.85,9-5.4,11.16-10.27,3.05-7.1,4-15.15,8-21.95l1.8-3.47c.61-1.16,1.31-2.26,1.9-3.41s1.27-2.41.65-3.61a2.44,2.44,0,0,0-3.17-1.38Z" style="fill:#f28f8f"></path><path d="M224.82,141.7a21.37,21.37,0,0,0-2.07,2.39c-.64.9-1.91,3.27-2.47,4.23a32.35,32.35,0,0,0-1.66,3.27,14.48,14.48,0,0,0-1.17,3.43c0,.11.11.31.21.16a23.79,23.79,0,0,0,1.54-3.07q.72-1.44,1.5-2.85c.52-.93,1.77-3.27,2.33-4.17.66-1.05,1.3-2.1,1.95-3.15C225.05,141.83,225,141.55,224.82,141.7Z" style="fill:#f28f8f"></path><path d="M223.39,134.25a30.21,30.21,0,0,0-2.95,3.52,64.54,64.54,0,0,0-3.37,5.52c-.8,1.35-1.54,2.73-2.24,4.15a14.66,14.66,0,0,0-1.78,4.52c0,.12.13.49.3.29a7.39,7.39,0,0,0,1-1.75c.32-.72.64-1.43,1-2.14q1-2.07,2.13-4.05c.74-1.27,2.21-4,3-5.19.52-.79,1-1.62,1.55-2.39s1.11-1.44,1.59-2.21C223.65,134.4,223.56,134.1,223.39,134.25Z" style="fill:#f28f8f"></path><path d="M214.35,137.55a5.46,5.46,0,0,0,.36-3.1c-.35,2.05-2.85,6.61-4.6,9.7-2,3.56-2,5.59-2,5.59s.75-1.63,3.94-7.23C212.56,141.34,213.88,138.72,214.35,137.55Z" style="fill:#f28f8f"></path><path d="M202.39,147.05a2.65,2.65,0,0,0-.54.25,64.52,64.52,0,0,0-1.75,9.35s1.89-5.89,3.46-9.45A1.79,1.79,0,0,0,202.39,147.05Z" style="fill:#f28f8f"></path></g><path d="M117.08,135.63c-7.17,2.44-15.63,10.16-16.38,19.05s1.56,19.86,8.49,27.93,19.16,18.52,19.16,18.52.9-7.68,9.64-15.67S151,177,151,177c-16-18.65-15.59-18.13-18.64-21.63C127.19,149.51,123.24,142.27,117.08,135.63Z" style="fill:#e0e0e0"></path><path d="M148.91,172.89c-2.17-1.11-8.65-1.2-16.79,7s-8.38,17-8.31,18.17c.17,2.62,3.26,3.25,4.37,4.19s2.83,3.26,4.2,3.69a4,4,0,0,0,2.91-.62l-2.06-1.87s.09-6.34,8.4-14.05,12.5-7.79,12.5-7.79l2,2.09a2.74,2.74,0,0,0,.38-3.12c-.94-1.71-2.74-1.8-4-3.17S152.25,174.6,148.91,172.89Z" style="fill:#e0e0e0"></path><path d="M148.91,172.89c-2.17-1.11-8.65-1.2-16.79,7s-8.38,17-8.31,18.17c.17,2.62,3.26,3.25,4.37,4.19s2.83,3.26,4.2,3.69a4,4,0,0,0,2.91-.62l-2.06-1.87s.09-6.34,8.4-14.05,12.5-7.79,12.5-7.79l2,2.09a2.74,2.74,0,0,0,.38-3.12c-.94-1.71-2.74-1.8-4-3.17S152.25,174.6,148.91,172.89Z" style="opacity:0.15"></path></g></g></g><g id="freepik--Bucket--inject-214"><g id="freepik--bucket--inject-214"><g id="freepik--bucket--inject-214"><path d="M99.71,360.6h66.62l-1.31,47h0c0,4.92-2.66,9.88-9.12,13.71-12.93,7.65-32.71,7.37-45.8,0-6.61-3.72-9.08-8.75-9.07-13.71Z" style="fill:#37474f"></path><path d="M100,370.43a20.87,20.87,0,0,0,8.57,8.23c13.58,7.65,35.46,7.94,48.87,0a22.4,22.4,0,0,0,8.63-8.35l.27-9.71H99.71Z" style="fill:#263238"></path><path d="M156.58,346.49c13,7.52,13,19.7,0,27.2s-34.1,7.48-47.11-.05-13-19.7,0-27.2S143.58,339,156.58,346.49Z" style="fill:#455a64"></path><path d="M98.48,351.55h69.09v9h0c.06,5.11-3.44,10.25-10.14,14.22-13.41,7.94-35.29,7.65-48.87,0-6.85-3.86-10.09-9.07-10.08-14.22Z" style="fill:#37474f"></path><path d="M157.46,336.91c13.48,7.81,13.47,20.44,0,28.22s-35.38,7.76-48.87-.05-13.47-20.44,0-28.21S144,329.11,157.46,336.91Z" style="fill:#455a64"></path><path d="M101.45,351.33a8.54,8.54,0,0,0,.48,2.7c1.06,3.24,3.88,6.24,8.28,8.72,6.12,3.42,14.28,5.27,23,5.19s16.81-2.1,22.86-5.67c4.25-2.52,7-5.57,8-8.73a8.69,8.69,0,0,0,.49-2.89c-.08-4.21-3.16-8.27-8.76-11.39-6.09-3.46-14.29-5.3-23-5.19s-16.85,2.11-22.9,5.68C104.42,343,101.41,347.11,101.45,351.33Z" style="fill:#263238"></path><path d="M101.93,354c1.06,3.24,3.88,6.24,8.28,8.72,6.12,3.42,14.28,5.27,23,5.19s16.81-2.1,22.86-5.67c4.25-2.52,7-5.57,8-8.73-1.06-3.23-3.88-6.24-8.27-8.68-6.09-3.46-14.29-5.3-23-5.23s-16.85,2.15-22.9,5.72C105.69,347.87,103,350.87,101.93,354Z" style="fill:#e0e0e0"></path><path d="M101.93,354c1.06,3.24,3.88,6.24,8.28,8.72,6.12,3.42,14.28,5.27,23,5.19s16.81-2.1,22.86-5.67c4.25-2.52,7-5.57,8-8.73-1.06-3.23-3.88-6.24-8.27-8.68-6.09-3.46-14.29-5.3-23-5.23s-16.85,2.15-22.9,5.72C105.69,347.87,103,350.87,101.93,354Z" style="opacity:0.15"></path><path d="M110.21,362.75a25.64,25.64,0,0,1-3.15-2.07c12.62,6.77,34.31,3.93,41.07-1.4s7.67-14.39-3.32-18.45a39,39,0,0,1,11,4c4.39,2.44,7.21,5.45,8.27,8.68-1,3.16-3.76,6.21-8,8.73-6,3.57-14.17,5.56-22.86,5.67S116.33,366.17,110.21,362.75Z" style="opacity:0.15"></path><path d="M118.29,371.12c-1.51-.85-2.72-.13-2.7,1.6a6,6,0,0,0,2.78,4.7c1.51.85,2.72.14,2.7-1.6A6,6,0,0,0,118.29,371.12Z" style="fill:#263238"></path><path d="M167.69,359c3.79,7.49,11.35,25.31,1.54,32.56-.42.3-.79.56-1.21.83l0,3.61c1-.6,2-1.28,3-2,14.66-10.86-1.88-38.75-2.59-39.92a1.39,1.39,0,0,0-.83-.64Z" style="fill:#263238"></path><path d="M117,375c.41.86,11.09,21.28,28.65,25.38a26,26,0,0,0,6.05.71A30.52,30.52,0,0,0,168.06,396l0-3.61c-7.25,5-14.54,6.76-21.69,5.11-16.2-3.8-26.58-23.68-26.65-23.87a1.5,1.5,0,0,0-2-.64A1.47,1.47,0,0,0,117,375Z" style="fill:#263238"></path></g><g id="freepik--trowel--inject-214"><g id="freepik--trowel--inject-214"><path d="M165.31,290.85a2.73,2.73,0,0,1,.24,2.79L153.2,314.73a5.53,5.53,0,1,1-9.54-5.6L156,288.06a2.72,2.72,0,0,1,2.56-1.17A8.68,8.68,0,0,1,165.31,290.85Z" style="fill:#6F42C1"></path><path d="M165.31,290.85a8.74,8.74,0,0,0-5-3.68c2.51,1.18,3.78,2.95,1,7.72s-8.87,15.3-10.07,17.32-4,5.07-7.55,2.94a5.43,5.43,0,0,0,1.78,1.72,5.63,5.63,0,0,0,7.66-2.14l12.35-21.09A2.73,2.73,0,0,0,165.31,290.85Z" style="opacity:0.15"></path><path d="M145.12,313.83a4.18,4.18,0,0,1,3.26,1.92,1.28,1.28,0,0,1,.12,1.34l-.94,1.58L143,316l.93-1.57A1.33,1.33,0,0,1,145.12,313.83Z" style="fill:#455a64"></path><path d="M147.44,317.33c.6,1.05.1,1.9-1.11,1.89a4.17,4.17,0,0,1-3.26-1.91c-.6-1.05-.11-1.9,1.1-1.89A4.22,4.22,0,0,1,147.44,317.33Z" style="fill:#263238"></path><path d="M146.66,317.33a2.71,2.71,0,0,0-2.1-1.23.81.81,0,0,0-.81.41l-2.25,3.89a11.54,11.54,0,0,0,0,11.51l1.67,2.91a10.59,10.59,0,0,1,0,10.57l-1.82,3.15c-.76,1,2.32,1.71,3.9-.05l.89-1.38a14,14,0,0,0,0-14l-1.67-2.9a8.1,8.1,0,0,1,0-8.08l2.27-3.93h0A.84.84,0,0,0,146.66,317.33Z" style="fill:#37474f"></path></g></g></g></g></svg>
